<?xml version="1.0" encoding="utf-8"?>
<COLLADA xmlns="http://www.collada.org/2005/11/COLLADASchema" version="1.4.1" xmlns:xsi="http://www.w3.org/2001/XMLSchema-instance">
  <asset>
    <contributor>
      <author>Blender User</author>
      <authoring_tool>Blender 2.83.5</authoring_tool>
    </contributor>
    <created>2025-11-26T19:32:13</created>
    <modified>2025-11-26T19:32:13</modified>
    <unit name="meter" meter="1"/>
    <up_axis>Z_UP</up_axis>
  </asset>
  <library_effects>
    <effect id="Material-effect">
      <profile_COMMON>
        <newparam sid="Untitled-surface">
          <surface type="2D">
            <init_from>Untitled</init_from>
          </surface>
        </newparam>
        <newparam sid="Untitled-sampler">
          <sampler2D>
            <source>Untitled-surface</source>
          </sampler2D>
        </newparam>
        <technique sid="common">
          <lambert>
            <emission>
              <color sid="emission">0 0 0 1</color>
            </emission>
            <diffuse>
              <texture texture="Untitled-sampler" texcoord="UVMap"/>
            </diffuse>
            <index_of_refraction>
              <float sid="ior">1.45</float>
            </index_of_refraction>
          </lambert>
        </technique>
      </profile_COMMON>
    </effect>
  </library_effects>
  <library_images>
    <image id="Untitled" name="Untitled">
      <init_from>Untitled.png</init_from>
    </image>
  </library_images>
  <library_materials>
    <material id="Material-material" name="Material">
      <instance_effect url="#Material-effect"/>
    </material>
  </library_materials>
  <library_geometries>
    <geometry id="Cube-mesh" name="Cube">
      <mesh>
        <source id="Cube-mesh-positions">
          <float_array id="Cube-mesh-positions-array" count="609">2.52944 2.548671 3.11935 2.52944 2.548671 -1.017881 2.52944 -2.555656 3.11935 2.52944 -2.555656 -1.017881 -2.574886 2.548671 3.11935 -2.574886 2.548671 -1.017881 -2.574886 -2.555656 3.11935 -2.574886 -2.555656 -1.017881 -2.574886 -0.003492414 -1.017881 -0.02272284 2.548671 -1.017881 2.52944 2.548671 1.534282 -2.574886 -2.555656 1.534282 2.52944 -2.555656 1.534282 -2.574886 2.548671 1.534282 -0.02272284 -2.555656 3.11935 2.52944 -0.003492414 3.11935 -0.02272284 -2.555656 -1.017881 -2.574886 -0.003492414 3.11935 -0.02272284 2.548671 3.11935 2.52944 -0.003492414 -1.017881 -0.02272284 2.548671 1.534282 2.52944 -0.003492414 1.534282 -0.02272284 -0.003492414 -1.017881 -2.574886 -0.003492414 1.534282 -0.02272284 -2.555656 1.534282 -0.02272284 -0.003492414 7.102347 -2.574886 -1.279574 -1.017881 -1.298805 2.548671 -1.017881 2.52944 2.548671 0.2582004 -2.574886 -2.555656 1.843269 2.52944 -2.555656 0.2582004 -2.574886 2.548671 0.2582004 -1.298805 -2.555656 3.11935 2.52944 -1.279574 3.11935 1.253359 -2.555656 -1.017881 -2.574886 1.272589 3.11935 1.253359 2.548671 3.11935 2.52944 0.9420505 -1.017881 -2.574886 1.272589 -1.017881 1.253359 2.548671 -1.017881 2.52944 2.548671 1.843269 -2.574886 -2.555656 0.2582004 2.52944 -2.555656 1.843269 -2.574886 2.548671 1.843269 1.253359 -2.555656 3.11935 2.52944 1.272589 3.11935 -1.298805 -2.555656 -1.017881 -2.574886 -1.279574 3.11935 -1.298805 2.548671 3.11935 2.52944 -0.9123088 -1.017881 1.253359 2.548671 1.534282 -1.298805 2.548671 1.534282 -0.02272284 2.548671 0.2582004 -0.02272284 2.548671 1.843269 2.52944 -1.279574 1.534282 2.52944 1.272589 1.534282 2.52944 -0.6897783 -0.8583711 2.52944 -0.003492414 1.843269 -0.02272284 -1.279574 -1.017881 -0.02272284 1.272589 -1.017881 -1.298805 -0.003492414 -1.017881 1.253359 -0.003492414 -1.017881 -2.574886 1.272589 1.534282 -2.574886 -1.279574 1.534282 -2.574886 -0.003492414 0.2582004 -2.574886 -0.003492414 1.843269 -1.298805 -2.555656 1.534282 1.253359 -2.555656 1.534282 -0.02272284 -2.555656 0.2582004 -0.02272284 -2.555656 1.843269 -0.02272284 -1.279574 3.803381 -0.02272284 1.272589 3.803381 1.253359 -0.003492414 3.803381 -1.298805 -0.003492414 3.803381 -1.298805 1.272589 3.803381 1.253359 1.272589 3.803381 1.253359 -1.279574 3.803381 1.253359 -2.555656 1.843269 1.253359 -2.555656 0.2582004 -1.298805 -2.555656 0.2582004 -2.574886 -1.279574 1.843269 -2.574886 -1.279574 0.2582004 -2.574886 1.272589 0.2582004 1.253359 1.272589 -1.017881 -1.298805 1.272589 -1.017881 -1.298805 -1.279574 -1.017881 2.52944 1.272589 1.843269 2.52944 0.9420505 0.2582004 2.52944 -0.9123088 0.2582004 -1.298805 2.548671 1.843269 -1.298805 2.548671 0.2582004 1.253359 2.548671 0.2582004 1.253359 2.548671 1.843269 2.52944 -1.279574 1.843269 1.253359 -1.279574 -1.017881 -2.574886 1.272589 1.843269 -1.298805 -2.555656 1.843269 -1.298805 -1.279574 3.803381 2.912911 -0.6415333 -1.017881 2.52944 0.6345484 1.534282 2.721176 -0.6656557 -0.698861 2.896706 0.6345484 -1.017881 2.52944 -0.6415333 1.534282 2.896706 -0.003492414 0.8962413 2.896706 0.6345484 0.2582004 2.52944 0.9420505 -0.3798404 2.52944 0.9420505 0.8962413 2.912911 -0.6415333 0.2582004 2.52944 -0.9123088 -0.3798404 2.912911 -0.6415333 0.8962413 2.912911 -0.6415333 -0.3798404 2.896706 0.6345484 -0.3798404 2.896706 0.6345484 0.8962413 2.52944 -0.6897783 -1.017881 2.52944 0.315528 1.534282 2.721176 -0.6656557 -1.017881 2.896706 0.9535688 -1.017881 2.52944 -0.9605537 1.534282 2.52944 -0.003492414 0.5772208 2.52944 0.6827933 0.2582004 2.52944 0.9420505 -0.698861 2.52944 0.9420505 0.5772208 2.912911 -0.9605537 0.2582004 2.52944 -0.9123088 -0.698861 2.52944 -0.9123088 0.5772208 2.912911 -0.9605537 -1.017881 2.52944 0.9535688 1.534282 2.912911 -0.6415333 -0.8583711 2.52944 0.6827933 -1.017881 2.52944 -0.3225129 1.534282 2.896706 -0.003492414 1.215262 2.896706 0.9535688 0.2582004 2.52944 0.9420505 -0.06081998 2.52944 -0.6897783 0.2582004 2.52944 -0.9123088 -0.06081998 2.912911 -0.9605537 0.8962413 2.896706 -0.6897783 0.8962413 2.912911 -0.6415333 0.5772208 2.896706 -0.6415333 1.215262 2.912911 -0.9605537 -0.3798404 2.52944 -0.6897783 -0.3798404 2.912911 -0.6415333 -0.698861 2.912911 -0.6415333 -0.06081998 2.52944 0.6827933 -0.3798404 2.896706 0.9535688 -0.3798404 2.896706 0.6345484 -0.698861 2.896706 0.6345484 -0.06081998 2.896706 0.6827933 0.8962413 2.896706 0.9535688 0.8962413 2.896706 0.6345484 0.5772208 2.896706 0.6345484 1.215262 2.896706 0.9535688 1.215262 2.896706 0.9535688 0.5772208 2.52944 0.6827933 0.5772208 2.896706 0.9535688 -0.06081998 2.896706 0.9535688 -0.698861 2.52944 0.6827933 -0.698861 2.52944 -0.6897783 -0.06081998 2.52944 -0.6897783 -0.698861 2.912911 -0.9605537 -0.698861 2.52944 -0.6897783 0.5772208 2.912911 -0.9605537 0.5772208 2.896706 -0.9605537 1.215262 2.912911 -0.9605537 -0.06081998 2.52944 0.6827933 -0.06081998 2.721176 -0.6656557 -0.8583711 2.713073 0.6586709 -1.017881 2.896706 0.6345484 -0.8583711 2.713073 0.6586709 -0.698861 2.52944 0.6827933 -0.8583711 2.713073 0.6586709 -0.8583711 -0.02272284 0.6345484 4.599344 -0.6607638 -0.003492414 4.599344 -0.02272284 -0.6415333 4.599344 0.615318 -0.003492414 4.599344 -1.298805 0.6345484 3.803381 -0.6607638 1.272589 3.803381 1.253359 0.6345484 3.803381 0.615318 1.272589 3.803381 1.253359 -0.6415333 3.803381 0.615318 -1.279574 3.803381 -1.298805 -0.6415333 3.803381 -0.6607638 -1.279574 3.803381 -0.6607638 -0.6415333 4.599344 0.615318 -0.6415333 4.599344 -0.6607638 0.6345484 4.599344 0.615318 0.6345484 4.599344 -0.02272284 0.315528 7.102347 -0.3417434 -0.003492414 7.102347 -0.02272284 -0.3225129 7.102347 0.2962974 -0.003492414 7.114785 -0.6607638 -0.3225129 4.599344 -0.3417434 -0.6415333 4.599344 0.615318 -0.3225129 4.599344 0.2962974 -0.6415333 4.599344 -0.6607638 0.315528 4.599344 -0.3417434 0.6345484 4.599344 0.615318 0.315528 4.599344 0.2962974 0.6345484 4.599344 -0.3417434 0.315528 7.102347 0.2962974 -0.3225129 7.114785 -0.3417434 -0.3225129 7.102347 0.2962974 0.315528 7.114785</float_array>
          <technique_common>
            <accessor source="#Cube-mesh-positions-array" count="203" stride="3">
              <param name="X" type="float"/>
              <param name="Y" type="float"/>
              <param name="Z" type="float"/>
            </accessor>
          </technique_common>
        </source>
        <source id="Cube-mesh-normals">
          <float_array id="Cube-mesh-normals-array" count="423">-0.4271708 -0.4271706 0.7969005 0 -1 0 -1 0 0 0 0 -1 1 0 0 0 1 0 1 -1.4108e-7 0 -7.82491e-7 0 -1 0 -0.4724445 0.8813604 -0.03895169 0 0.9992411 -0.472445 0 0.8813603 -0.7802607 0 0.6254546 0 0.4724447 0.8813604 -0.4271709 0.4271707 0.7969005 0.4724448 0 0.8813604 0 0 1 0 0.4724447 0.8813605 0.4724449 0 0.8813603 0 -0.7802608 0.6254546 1 1.92897e-7 0 1 2.27385e-7 0 -0.1248272 -0.9921785 0 0.6557794 0 0.7549526 0 -0.4724445 0.8813605 -0.6151595 -0.6151596 0.49311 -0.472445 0 0.8813602 -0.0436902 -0.9977782 -0.05029749 -0.1235581 0.9820896 0.1422441 -0.1248272 -0.9921786 0 -0.1248272 0.9921786 0 -0.1248273 0.9921785 0 -0.1302434 -0.9914821 0 0.6557796 0 -0.7549526 0.6557796 0 0.7549524 -0.03134703 0.9995086 0 -0.03134703 0.9995086 0 -0.1302433 -0.9914821 0 -0.1288036 -0.9805213 0.1482824 -0.03134703 0.9995086 0 -0.03134703 0.9995086 0 -0.03134703 0.9995086 0 -0.1248272 0.9921786 0 -0.1302433 -0.9914821 0 -0.1248273 0.9921785 0 -0.1248272 -0.9921786 0 -0.9468541 0.3180473 -0.04809737 0.6557796 0 -0.7549526 0.9987124 0 0.05073171 0.6557797 0 0.7549524 -0.1302433 -0.9914821 0 0.6557797 0 0.7549524 -0.9999194 -0.01269835 0 -6.43892e-7 0 1 -0.1198377 -0.9927749 -0.006087303 0.0871312 0.9949336 0.05015403 0.04369026 0.9977782 -0.05029761 0 -0.7802608 0.6254544 -0.7042525 -0.7042525 0.08976048 0.7802608 0 0.6254545 -0.004905045 -0.9920416 0.1258155 -0.9919753 0 0.1264322 0 0.7802608 0.6254545 -0.6151595 0.6151597 0.49311 0.7802608 0 0.6254546 0 0.7802608 0.6254544 0 0.9919753 0.1264322 -0.7042526 0.7042524 0.08976048 0.9920535 0 0.125817 -0.03895169 0 0.9992411 0 -0.9919753 0.1264322 -0.9919753 0 0.1264322 0.9920535 0 0.125817 -0.004905045 0.9920416 0.1258155 0 0 -1 1.80165e-7 0 -1 3.81542e-7 0 -1 -0.03896105 0 0.9992408 -0.4724444 0 0.8813606 -0.7802605 0 0.6254547 -0.7802608 0 0.6254544 0 0.4724446 0.8813605 0.4724442 0 0.8813606 0.4271708 0.4271708 0.7969005 0 0.4724447 0.8813604 0.4271706 -0.4271707 0.7969006 0.4724445 0 0.8813604 0.4724448 0 0.8813603 0 -0.7802607 0.6254544 0 0 -1 1 0 0 1 -4.65166e-7 0 0.6557793 0 0.7549527 1 -2.32583e-7 0 0.3484245 0.8322834 -0.4311667 1 -2.27385e-7 0 0.6557794 0 0.7549526 0 0 -1 0 -0.4724445 0.8813604 -0.472445 0 0.8813603 -0.4724447 0 0.8813604 -0.9479512 0.3184157 0 -0.1248272 0.9921785 0 -0.1248274 0.9921785 -2.41707e-7 -0.1302431 -0.9914821 0 0.6557794 0 -0.7549526 -0.03134703 0.9995086 0 -0.1302434 -0.9914821 0 -0.03134703 0.9995086 0 -0.03134703 0.9995086 0 -0.03134703 0.9995086 0 -0.1248275 0.9921785 0 -0.1302435 -0.9914821 0 -0.1302434 -0.9914821 -1.26097e-7 -0.1302438 -0.991482 0 -0.1248271 -0.9921786 0 0.6557796 0 -0.7549525 -0.1248272 -0.9921785 0 -0.1302435 -0.9914821 0 -0.9999194 -0.01269805 0 9.45921e-7 0 1 -1.31938e-7 0 1 -0.1248272 -0.9921785 0 -0.1288039 0.9805213 -0.1482824 -0.7802606 0 0.6254546 -0.7802605 0 0.6254547 0.6151595 -0.6151596 0.49311 0.7802605 0 0.6254547 0 -0.9919753 0.1264322 -0.9919753 0 0.1264322 0 0.7802607 0.6254544 0 0.7802607 0.6254545 0.7802608 0 0.6254544 0.7802607 0 0.6254546 0.6151596 0.6151596 0.49311 0 0.7802609 0.6254544 0.7042803 -0.7042806 0.08932024 0.9920536 0 0.1258171 -0.03896105 0 0.9992408 0 -0.9919753 0.1264322 0.7042804 0.7042805 0.08932024 0 0.9919753 0.1264322</float_array>
          <technique_common>
            <accessor source="#Cube-mesh-normals-array" count="141" stride="3">
              <param name="X" type="float"/>
              <param name="Y" type="float"/>
              <param name="Z" type="float"/>
            </accessor>
          </technique_common>
        </source>
        <source id="Cube-mesh-map-0">
          <float_array id="Cube-mesh-map-0-array" count="2622">0.875 0.6875 0.8125 0.75 0.8125 0.6875 0.625 0.9375 0.5625 1 0.5625 0.9375 0.625 0.1875 0.5625 0.25 0.5625 0.1875 0.3125 0.6875 0.375 0.75 0.3125 0.75 0.625 0.6875 0.5625 0.75 0.5625 0.6875 0.625 0.4375 0.5625 0.5 0.5625 0.4375 0.5 0.4375 0.4375 0.5 0.4375 0.4375 0.5 0.3125 0.4375 0.375 0.4375 0.3125 0.625 0.3125 0.5625 0.375 0.5625 0.3125 0.5 0.6875 0.4375 0.75 0.453125 0.6875 0.625 0.5625 0.5625 0.625 0.5625 0.5625 0.25 0.6875 0.1875 0.75 0.1875 0.6875 0.25 0.5625 0.1875 0.625 0.1875 0.5625 0.375 0.5625 0.375 0.6015625 0.375 0.609375 0.5 0.1875 0.4375 0.25 0.4375 0.1875 0.5 0.0625 0.4375 0.125 0.4375 0.0625 0.625 0.0625 0.5625 0.125 0.5625 0.0625 0.5 0.9375 0.4375 1 0.4375 0.9375 0.5 0.8125 0.4375 0.875 0.4375 0.8125 0.625 0.8125 0.5625 0.875 0.5625 0.8125 0.71875 0.6875 0.75 0.75 0.6875 0.75 0.75 0.609375 0.734375 0.625 0.734375 0.609375 0.875 0.625 0.8125 0.625 0.8125 0.59375 0.8125 0.625 0.78125 0.625 0.78125 0.609375 0.8125 0.5 0.8125 0.5625 0.78125 0.5625 0.8125 0.5 0.875 0.5625 0.8125 0.5625 0.6875 0.59375 0.6875 0.625 0.625 0.625 0.6875 0.5 0.625 0.5625 0.625 0.5 0.75 0.5 0.75 0.5625 0.71875 0.5625 0.625 0.6875 0.6875 0.75 0.625 0.75 0.6875 0.65625 0.6875 0.6875 0.625 0.6875 0.734375 0.65625 0.75 0.6875 0.71875 0.6875 0.5625 0.8125 0.5 0.875 0.5 0.8125 0.5625 0.75 0.5 0.8125 0.5 0.75 0.625 0.75 0.5625 0.8125 0.5625 0.75 0.4375 0.8125 0.375 0.875 0.375 0.8125 0.4375 0.75 0.375 0.8125 0.375 0.75 0.5 0.75 0.4375 0.8125 0.4375 0.75 0.4375 0.9375 0.375 1 0.375 0.9375 0.4375 0.875 0.375 0.9375 0.375 0.875 0.5 0.875 0.4375 0.9375 0.4375 0.875 0.5625 0.0625 0.5 0.125 0.5 0.0625 0.5625 0 0.5 0.0625 0.5 0 0.625 0 0.5625 0.0625 0.5625 0 0.4375 0.0625 0.375 0.125 0.375 0.0625 0.4375 0 0.375 0.0625 0.375 0 0.5 0 0.4375 0.0625 0.4375 0 0.4375 0.1875 0.375 0.25 0.375 0.1875 0.4375 0.125 0.375 0.1875 0.375 0.125 0.5 0.125 0.4375 0.1875 0.4375 0.125 0.3125 0.5625 0.25 0.625 0.25 0.5625 0.3125 0.5 0.25 0.5625 0.25 0.5 0.375 0.5 0.3125 0.5625 0.3125 0.5 0.1875 0.5625 0.125 0.625 0.125 0.5625 0.1875 0.5 0.125 0.5625 0.125 0.5 0.25 0.5 0.1875 0.5625 0.1875 0.5 0.1875 0.6875 0.125 0.75 0.125 0.6875 0.1875 0.625 0.125 0.6875 0.125 0.625 0.25 0.625 0.1875 0.6875 0.1875 0.625 0.5 0.59375 0.5 0.578125 0.5625 0.5625 0.5625 0.5 0.5 0.5625 0.5 0.5 0.625 0.5 0.5625 0.5625 0.5625 0.5 0.4375 0.5 0.421875 0.5625 0.40625 0.5625 0.5 0.5625 0.46875 0.5625 0.4375 0.5 0.375 0.75 0.390625 0.6875 0.40625 0.6875 0.4375 0.671875 0.421875 0.6875 0.421875 0.671875 0.5 0.640625 0.5 0.65625 0.484375 0.65625 0.5625 0.3125 0.5 0.375 0.5 0.3125 0.5625 0.25 0.5 0.3125 0.5 0.25 0.625 0.25 0.5625 0.3125 0.5625 0.25 0.4375 0.3125 0.375 0.375 0.375 0.3125 0.4375 0.25 0.375 0.3125 0.375 0.25 0.5 0.25 0.4375 0.3125 0.4375 0.25 0.4375 0.4375 0.375 0.5 0.375 0.4375 0.4375 0.375 0.375 0.4375 0.375 0.375 0.5 0.375 0.4375 0.4375 0.4375 0.375 0.5625 0.4375 0.5 0.5 0.5 0.4375 0.5625 0.375 0.5 0.4375 0.5 0.375 0.625 0.375 0.5625 0.4375 0.5625 0.375 0.5625 0.6875 0.5 0.75 0.5 0.6875 0.5 0.65625 0.5 0.640625 0.5625 0.625 0.625 0.625 0.5625 0.6875 0.5625 0.625 0.3125 0.6875 0.25 0.75 0.25 0.6875 0.3125 0.625 0.25 0.6875 0.25 0.625 0.375 0.6875 0.3125 0.6875 0.375 0.640625 0.5625 0.1875 0.5 0.25 0.5 0.1875 0.5625 0.125 0.5 0.1875 0.5 0.125 0.625 0.125 0.5625 0.1875 0.5625 0.125 0.5625 0.9375 0.5 1 0.5 0.9375 0.5625 0.875 0.5 0.9375 0.5 0.875 0.625 0.875 0.5625 0.9375 0.5625 0.875 0.78125 0.6875 0.8125 0.75 0.75 0.75 0.8125 0.65625 0.78125 0.6875 0.78125 0.65625 0.875 0.6875 0.8125 0.6875 0.8125 0.65625 0.484375 0.671875 0.5 0.671875 0.453125 0.6875 0.46875 0.640625 0.453125 0.65625 0.453125 0.640625 0 0 0 0 0 0 0.40625 0.671875 0.390625 0.6875 0.390625 0.671875 0.40625 0.65625 0.390625 0.65625 0.390625 0.6484375 0.4375 0.640625 0.421875 0.65625 0.421875 0.640625 0.3828125 0.6015625 0.375 0.609375 0.375 0.6015625 0.40625 0.578125 0.390625 0.59375 0.390625 0.578125 0.4375 0.578125 0.421875 0.59375 0.421875 0.578125 0.46875 0.609375 0.453125 0.625 0.453125 0.609375 0.46875 0.578125 0.453125 0.59375 0.453125 0.578125 0.5 0.578125 0.484375 0.59375 0.484375 0.578125 0.484375 0.578125 0.46875 0.59375 0.46875 0.578125 0.46875 0.59375 0.484375 0.625 0.46875 0.625 0.453125 0.578125 0.4375 0.59375 0.4375 0.578125 0.453125 0.5625 0.4375 0.578125 0.4375 0.5625 0.46875 0.5625 0.453125 0.578125 0.453125 0.5625 0.453125 0.59375 0.4375 0.609375 0.4375 0.59375 0.453125 0.59375 0.46875 0.609375 0.453125 0.609375 0.421875 0.578125 0.40625 0.59375 0.40625 0.578125 0.421875 0.5625 0.40625 0.578125 0.40625 0.5625 0.4375 0.5625 0.421875 0.578125 0.421875 0.5625 0.390625 0.578125 0.390625 0.59375 0.3828125 0.59375 0.390625 0.5625 0.375 0.578125 0.375 0.5625 0.40625 0.5625 0.390625 0.578125 0.390625 0.5625 0.3828125 0.6484375 0.375 0.65625 0.375 0.6484375 0.390625 0.6015625 0.3828125 0.609375 0.3828125 0.6015625 0.40625 0.609375 0.390625 0.609375 0.390625 0.6015625 0.421875 0.640625 0.40625 0.65625 0.40625 0.640625 0.3828125 0.59375 0.375 0.6015625 0.375 0.59375 0.390625 0.6484375 0.3828125 0.65625 0.3828125 0.6484375 0.3828125 0.640625 0.375 0.6484375 0.375 0.640625 0.390625 0.640625 0.3828125 0.6484375 0.3828125 0.640625 0.390625 0.671875 0.375 0.6875 0.375 0.671875 0.3828125 0.65625 0.390625 0.671875 0.375 0.671875 0.40625 0.65625 0.390625 0.671875 0.390625 0.65625 0.46875 0.640625 0.484375 0.65625 0.46875 0.65625 0.453125 0.640625 0.4375 0.65625 0.4375 0.640625 0.46875 0.625 0.453125 0.640625 0.453125 0.625 0.453125 0.671875 0.4375 0.6875 0.4375 0.671875 0.453125 0.65625 0.4375 0.671875 0.4375 0.65625 0.46875 0.65625 0.453125 0.671875 0.453125 0.65625 0.484375 0.65625 0.46875 0.671875 0.46875 0.65625 0.5 0.65625 0.484375 0.671875 0.484375 0.65625 0.421875 0.671875 0.40625 0.6875 0.40625 0.671875 0.421875 0.65625 0.40625 0.671875 0.40625 0.65625 0.4375 0.65625 0.421875 0.671875 0.421875 0.65625 0.390625 0.59375 0.3828125 0.6015625 0.3828125 0.59375 0.421875 0.59375 0.40625 0.609375 0.40625 0.59375 0.4375 0.59375 0.421875 0.609375 0.421875 0.59375 0.5 0.609375 0.5 0.625 0.484375 0.625 0.46875 0.625 0.484375 0.65625 0.46875 0.640625 0.375 0.65625 0.3828125 0.59375 0.375 0.59375 0.3828125 0.609375 0.375 0.640625 0.375 0.609375 0 0 0 0 0 0 0 0 0 0 0 0 0 0 0 0 0 0 0 0 0 0 0 0 0 0 0 0 0 0 0.453125 0.6875 0.46875 0.671875 0.484375 0.671875 0 0 0 0 0 0 0 0 0 0 0 0 0 0 0 0 0 0 0.765625 0.65625 0.78125 0.6875 0.75 0.6875 0.78125 0.640625 0.765625 0.65625 0.765625 0.640625 0.8125 0.65625 0.78125 0.65625 0.78125 0.640625 0.6875 0.65625 0.71875 0.6875 0.6875 0.6875 0.71875 0.640625 0.71875 0.65625 0.6875 0.65625 0.75 0.640625 0.734375 0.65625 0.734375 0.640625 0.78125 0.609375 0.765625 0.625 0.765625 0.609375 0.78125 0.5625 0.78125 0.59375 0.765625 0.59375 0.78125 0.5625 0.8125 0.59375 0.78125 0.59375 0.71875 0.609375 0.71875 0.625 0.6875 0.625 0.71875 0.5625 0.6875 0.59375 0.6875 0.5625 0.75 0.5625 0.75 0.59375 0.734375 0.59375 0.765625 0.609375 0.75 0.625 0.75 0.609375 0.765625 0.59375 0.75 0.609375 0.75 0.59375 0.765625 0.59375 0.78125 0.609375 0.765625 0.609375 0.71875 0.640625 0.734375 0.65625 0.71875 0.65625 0.734375 0.625 0.71875 0.640625 0.71875 0.625 0.75 0.625 0.734375 0.640625 0.734375 0.625 0.765625 0.640625 0.75 0.65625 0.75 0.640625 0.765625 0.625 0.75 0.640625 0.75 0.625 0.78125 0.625 0.765625 0.640625 0.765625 0.625 0.734375 0.609375 0.71875 0.625 0.71875 0.609375 0.734375 0.59375 0.71875 0.609375 0.71875 0.59375 0.734375 0.59375 0.75 0.609375 0.734375 0.609375 0.875 0.6875 0.875 0.75 0.8125 0.75 0.625 0.9375 0.625 1 0.5625 1 0.625 0.1875 0.625 0.25 0.5625 0.25 0.3125 0.6875 0.375 0.6875 0.375 0.75 0.625 0.6875 0.625 0.75 0.5625 0.75 0.625 0.4375 0.625 0.5 0.5625 0.5 0.5 0.4375 0.5 0.5 0.4375 0.5 0.5 0.3125 0.5 0.375 0.4375 0.375 0.625 0.3125 0.625 0.375 0.5625 0.375 0.453125 0.6875 0.5 0.671875 0.5 0.6875 0.5 0.6875 0.5 0.75 0.4375 0.75 0.4375 0.75 0.4375 0.6875 0.453125 0.6875 0.625 0.5625 0.625 0.625 0.5625 0.625 0.25 0.6875 0.25 0.75 0.1875 0.75 0.25 0.5625 0.25 0.625 0.1875 0.625 0.3125 0.625 0.3125 0.5625 0.375 0.609375 0.3125 0.5625 0.375 0.5625 0.375 0.609375 0.375 0.5625 0.375 0.578125 0.375 0.6015625 0.375 0.578125 0.375 0.59375 0.375 0.6015625 0.375 0.609375 0.375 0.625 0.3125 0.625 0.5 0.1875 0.5 0.25 0.4375 0.25 0.5 0.0625 0.5 0.125 0.4375 0.125 0.625 0.0625 0.625 0.125 0.5625 0.125 0.5 0.9375 0.5 1 0.4375 1 0.5 0.8125 0.5 0.875 0.4375 0.875 0.625 0.8125 0.625 0.875 0.5625 0.875 0.6875 0.75 0.6875 0.6875 0.71875 0.6875 0.71875 0.6875 0.75 0.6875 0.75 0.75 0.75 0.609375 0.75 0.625 0.734375 0.625 0.8125 0.59375 0.8125 0.5625 0.875 0.5625 0.875 0.5625 0.875 0.625 0.8125 0.59375 0.78125 0.609375 0.78125 0.59375 0.8125 0.59375 0.8125 0.59375 0.8125 0.625 0.78125 0.609375 0.75 0.5625 0.75 0.5 0.78125 0.5625 0.75 0.5 0.8125 0.5 0.78125 0.5625 0.8125 0.5 0.875 0.5 0.875 0.5625 0.625 0.625 0.625 0.5625 0.6875 0.59375 0.625 0.5625 0.6875 0.5625 0.6875 0.59375 0.6875 0.5 0.6875 0.5625 0.625 0.5625 0.6875 0.5625 0.6875 0.5 0.71875 0.5625 0.6875 0.5 0.75 0.5 0.71875 0.5625 0.625 0.6875 0.6875 0.6875 0.6875 0.75 0.625 0.6875 0.625 0.625 0.6875 0.65625 0.625 0.625 0.6875 0.625 0.6875 0.65625 0.71875 0.6875 0.71875 0.65625 0.734375 0.65625 0.734375 0.65625 0.75 0.65625 0.75 0.6875 0.5625 0.8125 0.5625 0.875 0.5 0.875 0.5625 0.75 0.5625 0.8125 0.5 0.8125 0.625 0.75 0.625 0.8125 0.5625 0.8125 0.4375 0.8125 0.4375 0.875 0.375 0.875 0.4375 0.75 0.4375 0.8125 0.375 0.8125 0.5 0.75 0.5 0.8125 0.4375 0.8125 0.4375 0.9375 0.4375 1 0.375 1 0.4375 0.875 0.4375 0.9375 0.375 0.9375 0.5 0.875 0.5 0.9375 0.4375 0.9375 0.5625 0.0625 0.5625 0.125 0.5 0.125 0.5625 0 0.5625 0.0625 0.5 0.0625 0.625 0 0.625 0.0625 0.5625 0.0625 0.4375 0.0625 0.4375 0.125 0.375 0.125 0.4375 0 0.4375 0.0625 0.375 0.0625 0.5 0 0.5 0.0625 0.4375 0.0625 0.4375 0.1875 0.4375 0.25 0.375 0.25 0.4375 0.125 0.4375 0.1875 0.375 0.1875 0.5 0.125 0.5 0.1875 0.4375 0.1875 0.3125 0.5625 0.3125 0.625 0.25 0.625 0.3125 0.5 0.3125 0.5625 0.25 0.5625 0.375 0.5 0.375 0.5625 0.3125 0.5625 0.1875 0.5625 0.1875 0.625 0.125 0.625 0.1875 0.5 0.1875 0.5625 0.125 0.5625 0.25 0.5 0.25 0.5625 0.1875 0.5625 0.1875 0.6875 0.1875 0.75 0.125 0.75 0.1875 0.625 0.1875 0.6875 0.125 0.6875 0.25 0.625 0.25 0.6875 0.1875 0.6875 0.5 0.578125 0.5 0.5625 0.5625 0.5625 0.5625 0.5625 0.5625 0.625 0.5 0.59375 0.5625 0.625 0.5 0.625 0.5 0.609375 0.5 0.609375 0.5 0.59375 0.5625 0.625 0.5625 0.5 0.5625 0.5625 0.5 0.5625 0.625 0.5 0.625 0.5625 0.5625 0.5625 0.375 0.5625 0.375 0.5 0.390625 0.5625 0.375 0.5 0.4375 0.5 0.40625 0.5625 0.390625 0.5625 0.375 0.5 0.40625 0.5625 0.4375 0.5 0.4375 0.5625 0.421875 0.5625 0.5 0.578125 0.484375 0.578125 0.5 0.5625 0.484375 0.578125 0.46875 0.578125 0.46875 0.5625 0.46875 0.5625 0.453125 0.5625 0.4375 0.5 0.453125 0.5625 0.4375 0.5625 0.4375 0.5 0.46875 0.5625 0.5 0.5625 0.484375 0.578125 0.5 0.5 0.5 0.5625 0.4375 0.5 0.375 0.75 0.375 0.6875 0.390625 0.6875 0.40625 0.6875 0.421875 0.6875 0.4375 0.75 0.421875 0.6875 0.4375 0.6875 0.4375 0.75 0.40625 0.6875 0.4375 0.75 0.375 0.75 0.4375 0.671875 0.4375 0.6875 0.421875 0.6875 0.484375 0.65625 0.484375 0.625 0.5 0.640625 0.484375 0.625 0.5 0.625 0.5 0.640625 0.5625 0.3125 0.5625 0.375 0.5 0.375 0.5625 0.25 0.5625 0.3125 0.5 0.3125 0.625 0.25 0.625 0.3125 0.5625 0.3125 0.4375 0.3125 0.4375 0.375 0.375 0.375 0.4375 0.25 0.4375 0.3125 0.375 0.3125 0.5 0.25 0.5 0.3125 0.4375 0.3125 0.4375 0.4375 0.4375 0.5 0.375 0.5 0.4375 0.375 0.4375 0.4375 0.375 0.4375 0.5 0.375 0.5 0.4375 0.4375 0.4375 0.5625 0.4375 0.5625 0.5 0.5 0.5 0.5625 0.375 0.5625 0.4375 0.5 0.4375 0.625 0.375 0.625 0.4375 0.5625 0.4375 0.5625 0.6875 0.5625 0.75 0.5 0.75 0.5 0.640625 0.5 0.625 0.5625 0.625 0.5625 0.625 0.5625 0.6875 0.5 0.65625 0.5625 0.6875 0.5 0.6875 0.5 0.671875 0.5 0.671875 0.5 0.65625 0.5625 0.6875 0.625 0.625 0.625 0.6875 0.5625 0.6875 0.3125 0.6875 0.3125 0.75 0.25 0.75 0.3125 0.625 0.3125 0.6875 0.25 0.6875 0.3125 0.6875 0.3125 0.625 0.375 0.640625 0.3125 0.625 0.375 0.625 0.375 0.640625 0.375 0.640625 0.375 0.6484375 0.375 0.6875 0.375 0.6484375 0.375 0.65625 0.375 0.671875 0.375 0.6875 0.375 0.6484375 0.375 0.671875 0.5625 0.1875 0.5625 0.25 0.5 0.25 0.5625 0.125 0.5625 0.1875 0.5 0.1875 0.625 0.125 0.625 0.1875 0.5625 0.1875 0.5625 0.9375 0.5625 1 0.5 1 0.5625 0.875 0.5625 0.9375 0.5 0.9375 0.625 0.875 0.625 0.9375 0.5625 0.9375 0.75 0.75 0.75 0.6875 0.78125 0.6875 0.78125 0.6875 0.8125 0.6875 0.8125 0.75 0.8125 0.65625 0.8125 0.6875 0.78125 0.6875 0.8125 0.65625 0.8125 0.625 0.875 0.625 0.875 0.625 0.875 0.6875 0.8125 0.65625 0.46875 0.640625 0.46875 0.65625 0.453125 0.65625 0 0 0 0 0 0 0.40625 0.671875 0.40625 0.6875 0.390625 0.6875 0.390625 0.6484375 0.390625 0.640625 0.40625 0.640625 0.40625 0.640625 0.40625 0.65625 0.390625 0.6484375 0.4375 0.640625 0.4375 0.65625 0.421875 0.65625 0.3828125 0.6015625 0.3828125 0.609375 0.375 0.609375 0.40625 0.578125 0.40625 0.59375 0.390625 0.59375 0.4375 0.578125 0.4375 0.59375 0.421875 0.59375 0.46875 0.609375 0.46875 0.625 0.453125 0.625 0.46875 0.578125 0.46875 0.59375 0.453125 0.59375 0.5 0.578125 0.5 0.59375 0.484375 0.59375 0.484375 0.578125 0.484375 0.59375 0.46875 0.59375 0.46875 0.59375 0.484375 0.59375 0.484375 0.625 0.46875 0.625 0.46875 0.609375 0.46875 0.59375 0.453125 0.578125 0.453125 0.59375 0.4375 0.59375 0.453125 0.5625 0.453125 0.578125 0.4375 0.578125 0.46875 0.5625 0.46875 0.578125 0.453125 0.578125 0.453125 0.59375 0.453125 0.609375 0.4375 0.609375 0.453125 0.59375 0.46875 0.59375 0.46875 0.609375 0.421875 0.578125 0.421875 0.59375 0.40625 0.59375 0.421875 0.5625 0.421875 0.578125 0.40625 0.578125 0.4375 0.5625 0.4375 0.578125 0.421875 0.578125 0.375 0.59375 0.375 0.578125 0.3828125 0.59375 0.375 0.578125 0.390625 0.578125 0.3828125 0.59375 0.390625 0.5625 0.390625 0.578125 0.375 0.578125 0.40625 0.5625 0.40625 0.578125 0.390625 0.578125 0.3828125 0.6484375 0.3828125 0.65625 0.375 0.65625 0.390625 0.6015625 0.390625 0.609375 0.3828125 0.609375 0.390625 0.6015625 0.390625 0.59375 0.40625 0.59375 0.40625 0.59375 0.40625 0.609375 0.390625 0.6015625 0.421875 0.640625 0.421875 0.65625 0.40625 0.65625 0.3828125 0.59375 0.3828125 0.6015625 0.375 0.6015625 0.390625 0.6484375 0.390625 0.65625 0.3828125 0.65625 0.3828125 0.640625 0.3828125 0.6484375 0.375 0.6484375 0.390625 0.640625 0.390625 0.6484375 0.3828125 0.6484375 0.390625 0.671875 0.390625 0.6875 0.375 0.6875 0.375 0.671875 0.375 0.65625 0.3828125 0.65625 0.3828125 0.65625 0.390625 0.65625 0.390625 0.671875 0.40625 0.65625 0.40625 0.671875 0.390625 0.671875 0.453125 0.640625 0.453125 0.65625 0.4375 0.65625 0.46875 0.625 0.46875 0.640625 0.453125 0.640625 0.453125 0.671875 0.453125 0.6875 0.4375 0.6875 0.453125 0.65625 0.453125 0.671875 0.4375 0.671875 0.46875 0.65625 0.46875 0.671875 0.453125 0.671875 0.484375 0.65625 0.484375 0.671875 0.46875 0.671875 0.5 0.65625 0.5 0.671875 0.484375 0.671875 0.421875 0.671875 0.421875 0.6875 0.40625 0.6875 0.421875 0.65625 0.421875 0.671875 0.40625 0.671875 0.4375 0.65625 0.4375 0.671875 0.421875 0.671875 0.390625 0.59375 0.390625 0.6015625 0.3828125 0.6015625 0.421875 0.59375 0.421875 0.609375 0.40625 0.609375 0.4375 0.59375 0.4375 0.609375 0.421875 0.609375 0.484375 0.625 0.484375 0.59375 0.5 0.609375 0.484375 0.59375 0.5 0.59375 0.5 0.609375 0.46875 0.625 0.484375 0.625 0.484375 0.65625 0.375 0.65625 0.3828125 0.65625 0.3828125 0.59375 0.3828125 0.609375 0.3828125 0.640625 0.375 0.640625 0 0 0 0 0 0 0 0 0 0 0 0 0 0 0 0 0 0 0 0 0 0 0 0 0 0 0 0 0 0 0 0 0 0 0 0 0 0 0 0 0 0 0 0 0 0 0 0 0 0 0 0 0 0 0 0 0 0 0 0 0 0 0 0 0 0 0 0 0 0 0 0 0 0 0 0 0 0 0 0 0 0 0 0 0 0 0 0 0 0 0 0 0 0 0 0 0 0 0 0 0 0 0 0 0 0 0 0 0 0 0 0 0 0 0 0 0 0 0 0 0 0 0 0 0 0 0 0 0 0 0 0 0 0 0 0 0 0 0 0 0 0 0 0 0 0 0 0 0 0 0 0 0 0 0 0 0 0 0 0 0 0 0 0 0 0 0 0 0.453125 0.6875 0.453125 0.671875 0.46875 0.671875 0 0 0 0 0 0 0 0 0 0 0 0 0 0 0 0 0 0 0 0 0 0 0 0 0 0 0 0 0 0 0 0 0 0 0 0 0 0 0 0 0 0 0.75 0.6875 0.75 0.65625 0.765625 0.65625 0.765625 0.65625 0.78125 0.65625 0.78125 0.6875 0.78125 0.640625 0.78125 0.65625 0.765625 0.65625 0.78125 0.640625 0.78125 0.625 0.8125 0.625 0.8125 0.625 0.8125 0.65625 0.78125 0.640625 0.6875 0.65625 0.71875 0.65625 0.71875 0.6875 0.6875 0.65625 0.6875 0.625 0.71875 0.640625 0.6875 0.625 0.71875 0.625 0.71875 0.640625 0.75 0.640625 0.75 0.65625 0.734375 0.65625 0.78125 0.609375 0.78125 0.625 0.765625 0.625 0.75 0.59375 0.75 0.5625 0.765625 0.59375 0.75 0.5625 0.78125 0.5625 0.765625 0.59375 0.78125 0.5625 0.8125 0.5625 0.8125 0.59375 0.6875 0.625 0.6875 0.59375 0.71875 0.609375 0.6875 0.59375 0.71875 0.59375 0.71875 0.609375 0.71875 0.5625 0.71875 0.59375 0.6875 0.59375 0.71875 0.59375 0.71875 0.5625 0.734375 0.59375 0.71875 0.5625 0.75 0.5625 0.734375 0.59375 0.765625 0.609375 0.765625 0.625 0.75 0.625 0.765625 0.59375 0.765625 0.609375 0.75 0.609375 0.765625 0.59375 0.78125 0.59375 0.78125 0.609375 0.71875 0.640625 0.734375 0.640625 0.734375 0.65625 0.734375 0.625 0.734375 0.640625 0.71875 0.640625 0.75 0.625 0.75 0.640625 0.734375 0.640625 0.765625 0.640625 0.765625 0.65625 0.75 0.65625 0.765625 0.625 0.765625 0.640625 0.75 0.640625 0.78125 0.625 0.78125 0.640625 0.765625 0.640625 0.734375 0.609375 0.734375 0.625 0.71875 0.625 0.734375 0.59375 0.734375 0.609375 0.71875 0.609375 0.734375 0.59375 0.75 0.59375 0.75 0.609375</float_array>
          <technique_common>
            <accessor source="#Cube-mesh-map-0-array" count="1311" stride="2">
              <param name="S" type="float"/>
              <param name="T" type="float"/>
            </accessor>
          </technique_common>
        </source>
        <source id="Cube-mesh-colors-Col" name="Col">
          <float_array id="Cube-mesh-colors-Col-array" count="5244">1 1 1 1 1 1 1 1 1 1 1 1 1 1 1 1 1 1 1 1 1 1 1 1 1 1 1 1 1 1 1 1 1 1 1 1 1 1 1 1 1 1 1 1 1 1 1 1 1 1 1 1 1 1 1 1 1 1 1 1 1 1 1 1 1 1 1 1 1 1 1 1 1 1 1 1 1 1 1 1 1 1 1 1 1 1 1 1 1 1 1 1 1 1 1 1 1 1 1 1 1 1 1 1 1 1 1 1 1 1 1 1 1 1 1 1 1 1 1 1 1 1 1 1 1 1 1 1 1 1 1 1 1 1 1 1 1 1 1 1 1 1 1 1 1 1 1 1 1 1 1 1 1 1 1 1 1 1 1 1 1 1 1 1 1 1 1 1 1 1 1 1 1 1 1 1 1 1 1 1 1 1 1 1 1 1 1 1 1 1 1 1 1 1 1 1 1 1 1 1 1 1 1 1 1 1 1 1 1 1 1 1 1 1 1 1 1 1 1 1 1 1 1 1 1 1 1 1 1 1 1 1 1 1 1 1 1 1 1 1 1 1 1 1 1 1 1 1 1 1 1 1 1 1 1 1 1 1 1 1 1 1 1 1 1 1 1 1 1 1 1 1 1 1 1 1 1 1 1 1 1 1 1 1 1 1 1 1 1 1 1 1 1 1 1 1 1 1 1 1 1 1 1 1 1 1 1 1 1 1 1 1 1 1 1 1 1 1 1 1 1 1 1 1 1 1 1 1 1 1 1 1 1 1 1 1 1 1 1 1 1 1 1 1 1 1 1 1 1 1 1 1 1 1 1 1 1 1 1 1 1 1 1 1 1 1 1 1 1 1 1 1 1 1 1 1 1 1 1 1 1 1 1 1 1 1 1 1 1 1 1 1 1 1 1 1 1 1 1 1 1 1 1 1 1 1 1 1 1 1 1 1 1 1 1 1 1 1 1 1 1 1 1 1 1 1 1 1 1 1 1 1 1 1 1 1 1 1 1 1 1 1 1 1 1 1 1 1 1 1 1 1 1 1 1 1 1 1 1 1 1 1 1 1 1 1 1 1 1 1 1 1 1 1 1 1 1 1 1 1 1 1 1 1 1 1 1 1 1 1 1 1 1 1 1 1 1 1 1 1 1 1 1 1 1 1 1 1 1 1 1 1 1 1 1 1 1 1 1 1 1 1 1 1 1 1 1 1 1 1 1 1 1 1 1 1 1 1 1 1 1 1 1 1 1 1 1 1 1 1 1 1 1 1 1 1 1 1 1 1 1 1 1 1 1 1 1 1 1 1 1 1 1 1 1 1 1 1 1 1 1 1 1 1 1 1 1 1 1 1 1 1 1 1 1 1 1 1 1 1 1 1 1 1 1 1 1 1 1 1 1 1 1 1 1 1 1 1 1 1 1 1 1 1 1 1 1 1 1 1 1 1 1 1 1 1 1 1 1 1 1 1 1 1 1 1 1 1 1 1 1 1 1 1 1 1 1 1 1 1 1 1 1 1 1 1 1 1 1 1 1 1 1 1 1 1 1 1 1 1 1 1 1 1 1 1 1 1 1 1 1 1 1 1 1 1 1 1 1 1 1 1 1 1 1 1 1 1 1 1 1 1 1 1 1 1 1 1 1 1 1 1 1 1 1 1 1 1 1 1 1 1 1 1 1 1 1 1 1 1 1 1 1 1 1 1 1 1 1 1 1 1 1 1 1 1 1 1 1 1 1 1 1 1 1 1 1 1 1 1 1 1 1 1 1 1 1 1 1 1 1 1 1 1 1 1 1 1 1 1 1 1 1 1 1 1 1 1 1 1 1 1 1 1 1 1 1 1 1 1 1 1 1 1 1 1 1 1 1 1 1 1 1 1 1 1 1 1 1 1 1 1 1 1 1 1 1 1 1 1 1 1 1 1 1 1 1 1 1 1 1 1 1 1 1 1 1 1 1 1 1 1 1 1 1 1 1 1 1 1 1 1 1 1 1 1 1 1 1 1 1 1 1 1 1 1 1 1 1 1 1 1 1 1 1 1 1 1 1 1 1 1 1 1 1 1 1 1 1 1 1 1 1 1 1 1 1 1 1 1 1 1 1 1 1 1 1 1 1 1 1 1 1 1 1 1 1 1 1 1 1 1 1 1 1 1 1 1 1 1 1 1 1 1 1 1 1 1 1 1 1 1 1 1 1 1 1 1 1 1 1 1 1 1 1 1 1 1 1 1 1 1 1 1 1 1 1 1 1 1 1 1 1 1 1 1 1 1 1 1 1 1 1 1 1 1 1 1 1 1 1 1 1 1 1 1 1 1 1 1 1 1 1 1 1 1 1 1 1 1 1 1 1 1 1 1 1 1 1 1 1 1 1 1 1 1 1 1 1 1 1 1 1 1 1 1 1 1 1 1 1 1 1 1 1 1 1 1 1 1 1 1 1 1 1 1 1 1 1 1 1 1 1 1 1 1 1 1 1 1 1 1 1 1 1 1 1 1 1 1 1 1 1 1 1 1 1 1 1 1 1 1 1 1 1 1 1 1 1 1 1 1 1 1 1 1 1 1 1 1 1 1 1 1 1 1 1 1 1 1 1 1 1 1 1 1 1 1 1 1 1 1 1 1 1 1 1 1 1 1 1 1 1 1 1 1 1 1 1 1 1 1 1 1 1 1 1 1 1 1 1 1 1 1 1 1 1 1 1 1 1 1 1 1 1 1 1 1 1 1 1 1 1 1 1 1 1 1 1 1 1 1 1 1 1 1 1 1 1 1 1 1 1 1 1 1 1 1 1 1 1 1 1 1 1 1 1 1 1 1 1 1 1 1 1 1 1 1 1 1 1 1 1 1 1 1 1 1 1 1 1 1 1 1 1 1 1 1 1 1 1 1 1 1 1 1 1 1 1 1 1 1 1 1 1 1 1 1 1 1 1 1 1 1 1 1 1 1 1 1 1 1 1 1 1 1 1 1 1 1 1 1 1 1 1 1 1 1 1 1 1 1 1 1 1 1 1 1 1 1 1 1 1 1 1 1 1 1 1 1 1 1 1 1 1 1 1 1 1 1 1 1 1 1 1 1 1 1 1 1 1 1 1 1 1 1 1 1 1 1 1 1 1 1 1 1 1 1 1 1 1 1 1 1 1 1 1 1 1 1 1 1 1 1 1 1 1 1 1 1 1 1 1 1 1 1 1 1 1 1 1 1 1 1 1 1 1 1 1 1 1 1 1 1 1 1 1 1 1 1 1 1 1 1 1 1 1 1 1 1 1 1 1 1 1 1 1 1 1 1 1 1 1 1 1 1 1 1 1 1 1 1 1 1 1 1 1 1 1 1 1 1 1 1 1 1 1 1 1 1 1 1 1 1 1 1 1 1 1 1 1 1 1 1 1 1 1 1 1 1 1 1 1 1 1 1 1 1 1 1 1 1 1 1 1 1 1 1 1 1 1 1 1 1 1 1 1 1 1 1 1 1 1 1 1 1 1 1 1 1 1 1 1 1 1 1 1 1 1 1 1 1 1 1 1 1 1 1 1 1 1 1 1 1 1 1 1 1 1 1 1 1 1 1 1 1 1 1 1 1 1 1 1 1 1 1 1 1 1 1 1 1 1 1 1 1 1 1 1 1 1 1 1 1 1 1 1 1 1 1 1 1 1 1 1 1 1 1 1 1 1 1 1 1 1 1 1 1 1 1 1 1 1 1 1 1 1 1 1 1 1 1 1 1 1 1 1 1 1 1 1 1 1 1 1 1 1 1 1 1 1 1 1 1 1 1 1 1 1 1 1 1 1 1 1 1 1 1 1 1 1 1 1 1 1 1 1 1 1 1 1 1 1 1 1 1 1 1 1 1 1 1 1 1 1 1 1 1 1 1 1 1 1 1 1 1 1 1 1 1 1 1 1 1 1 1 1 1 1 1 1 1 1 1 1 1 1 1 1 1 1 1 1 1 1 1 1 1 1 1 1 1 1 1 1 1 1 1 1 1 1 1 1 1 1 1 1 1 1 1 1 1 1 1 1 1 1 1 1 1 1 1 1 1 1 1 1 1 1 1 1 1 1 1 1 1 1 1 1 1 1 1 1 1 1 1 1 1 1 1 1 1 1 1 1 1 1 1 1 1 1 1 1 1 1 1 1 1 1 1 1 1 1 1 1 1 1 1 1 1 1 1 1 1 1 1 1 1 1 1 1 1 1 1 1 1 1 1 1 1 1 1 1 1 1 1 1 1 1 1 1 1 1 1 1 1 1 1 1 1 1 1 1 1 1 1 1 1 1 1 1 1 1 1 1 1 1 1 1 1 1 1 1 1 1 1 1 1 1 1 1 1 1 1 1 1 1 1 1 1 1 1 1 1 1 1 1 1 1 1 1 1 1 1 1 1 1 1 1 1 1 1 1 1 1 1 1 1 1 1 1 1 1 1 1 1 1 1 1 1 1 1 1 1 1 1 1 1 1 1 1 1 1 1 1 1 1 1 1 1 1 1 1 1 1 1 1 1 1 1 1 1 1 1 1 1 1 1 1 1 1 1 1 1 1 1 1 1 1 1 1 1 1 1 1 1 1 1 1 1 1 1 1 1 1 1 1 1 1 1 1 1 1 1 1 1 1 1 1 1 1 1 1 1 1 1 1 1 1 1 1 1 1 1 1 1 1 1 1 1 1 1 1 1 1 1 1 1 1 1 1 1 1 1 1 1 1 1 1 1 1 1 1 1 1 1 1 1 1 1 1 1 1 1 1 1 1 1 1 1 1 1 1 1 1 1 1 1 1 1 1 1 1 1 1 1 1 1 1 1 1 1 1 1 1 1 1 1 1 1 1 1 1 1 1 1 1 1 1 1 1 1 1 1 1 1 1 1 1 1 1 1 1 1 1 1 1 1 1 1 1 1 1 1 1 1 1 1 1 1 1 1 1 1 1 1 1 1 1 1 1 1 1 1 1 1 1 1 1 1 1 1 1 1 1 1 1 1 1 1 1 1 1 1 1 1 1 1 1 1 1 1 1 1 1 1 1 1 1 1 1 1 1 1 1 1 1 1 1 1 1 1 1 1 1 1 1 1 1 1 1 1 1 1 1 1 1 1 1 1 1 1 1 1 1 1 1 1 1 1 1 1 1 1 1 1 1 1 1 1 1 1 1 1 1 1 1 1 1 1 1 1 1 1 1 1 1 1 1 1 1 1 1 1 1 1 1 1 1 1 1 1 1 1 1 1 1 1 1 1 1 1 1 1 1 1 1 1 1 1 1 1 1 1 1 1 1 1 1 1 1 1 1 1 1 1 1 1 1 1 1 1 1 1 1 1 1 1 1 1 1 1 1 1 1 1 1 1 1 1 1 1 1 1 1 1 1 1 1 1 1 1 1 1 1 1 1 1 1 1 1 1 1 1 1 1 1 1 1 1 1 1 1 1 1 1 1 1 1 1 1 1 1 1 1 1 1 1 1 1 1 1 1 1 1 1 1 1 1 1 1 1 1 1 1 1 1 1 1 1 1 1 1 1 1 1 1 1 1 1 1 1 1 1 1 1 1 1 1 1 1 1 1 1 1 1 1 1 1 1 1 1 1 1 1 1 1 1 1 1 1 1 1 1 1 1 1 1 1 1 1 1 1 1 1 1 1 1 1 1 1 1 1 1 1 1 1 1 1 1 1 1 1 1 1 1 1 1 1 1 1 1 1 1 1 1 1 1 1 1 1 1 1 1 1 1 1 1 1 1 1 1 1 1 1 1 1 1 1 1 1 1 1 1 1 1 1 1 1 1 1 1 1 1 1 1 1 1 1 1 1 1 1 1 1 1 1 1 1 1 1 1 1 1 1 1 1 1 1 1 1 1 1 1 1 1 1 1 1 1 1 1 1 1 1 1 1 1 1 1 1 1 1 1 1 1 1 1 1 1 1 1 1 1 1 1 1 1 1 1 1 1 1 1 1 1 1 1 1 1 1 1 1 1 1 1 1 1 1 1 1 1 1 1 1 1 1 1 1 1 1 1 1 1 1 1 1 1 1 1 1 1 1 1 1 1 1 1 1 1 1 1 1 1 1 1 1 1 1 1 1 1 1 1 1 1 1 1 1 1 1 1 1 1 1 1 1 1 1 1 1 1 1 1 1 1 1 1 1 1 1 1 1 1 1 1 1 1 1 1 1 1 1 1 1 1 1 1 1 1 1 1 1 1 1 1 1 1 1 1 1 1 1 1 1 1 1 1 1 1 1 1 1 1 1 1 1 1 1 1 1 1 1 1 1 1 1 1 1 1 1 1 1 1 1 1 1 1 1 1 1 1 1 1 1 1 1 1 1 1 1 1 1 1 1 1 1 1 1 1 1 1 1 1 1 1 1 1 1 1 1 1 1 1 1 1 1 1 1 1 1 1 1 1 1 1 1 1 1 1 1 1 1 1 1 1 1 1 1 1 1 1 1 1 1 1 1 1 1 1 1 1 1 1 1 1 1 1 1 1 1 1 1 1 1 1 1 1 1 1 1 1 1 1 1 1 1 1 1 1 1 1 1 1 1 1 1 1 1 1 1 1 1 1 1 1 1 1 1 1 1 1 1 1 1 1 1 1 1 1 1 1 1 1 1 1 1 1 1 1 1 1 1 1 1 1 1 1 1 1 1 1 1 1 1 1 1 1 1 1 1 1 1 1 1 1 1 1 1 1 1 1 1 1 1 1 1 1 1 1 1 1 1 1 1 1 1 1 1 1 1 1 1 1 1 1 1 1 1 1 1 1 1 1 1 1 1 1 1 1 1 1 1 1 1 1 1 1 1 1 1 1 1 1 1 1 1 1 1 1 1 1 1 1 1 1 1 1 1 1 1 1 1 1 1 1 1 1 1 1 1 1 1 1 1 1 1 1 1 1 1 1 1 1 1 1 1 1 1 1 1 1 1 1 1 1 1 1 1 1 1 1 1 1 1 1 1 1 1 1 1 1 1 1 1 1 1 1 1 1 1 1 1 1 1 1 1 1 1 1 1 1 1 1 1 1 1 1 1 1 1 1 1 1 1 1 1 1 1 1 1 1 1 1 1 1 1 1 1 1 1 1 1 1 1 1 1 1 1 1 1 1 1 1 1 1 1 1 1 1 1 1 1 1 1 1 1 1 1 1 1 1 1 1 1 1 1 1 1 1 1 1 1 1 1 1 1 1 1 1 1 1 1 1 1 1 1 1 1 1 1 1 1 1 1 1 1 1 1 1 1 1 1 1 1 1 1 1 1 1 1 1 1 1 1 1 1 1 1 1 1 1 1 1 1 1 1 1 1 1 1 1 1 1 1 1 1 1 1 1 1 1 1 1 1 1 1 1 1 1 1 1 1 1 1 1 1 1 1 1 1 1 1 1 1 1 1 1 1 1 1 1 1 1 1 1 1 1 1 1 1 1 1 1 1 1 1 1 1 1 1 1 1 1 1 1 1 1 1 1 1 1 1 1 1 1 1 1 1 1 1 1 1 1 1 1 1 1 1 1 1 1 1 1 1 1 1 1 1 1 1 1 1 1 1 1 1 1 1 1 1 1 1 1 1 1 1 1 1 1 1 1 1 1 1 1 1 1 1 1 1 1 1 1 1 1 1 1 1 1 1 1 1 1 1 1 1 1 1 1 1 1 1 1 1 1 1 1 1 1 1 1 1 1 1 1 1 1 1 1 1 1 1 1 1 1 1 1 1 1 1 1 1 1 1 1 1 1 1 1 1 1 1 1 1 1 1 1 1 1 1 1 1 1 1 1 1 1 1 1 1 1 1 1 1 1 1 1 1 1 1 1 1 1 1 1 1 1 1 1 1 1 1 1 1 1 1 1 1 1 1 1 1 1 1 1 1 1 1 1 1 1 1 1 1 1 1 1 1 1 1 1 1 1 1 1 1 1 1 1 1 1 1 1 1 1 1 1 1 1 1 1 1 1 1 1 1 1 1 1 1 1 1 1 1 1 1 1 1 1 1 1 1 1 1 1 1 1 1 1 1 1 1 1 1 1 1 1 1 1 1 1 1 1 1 1 1 1 1 1 1 1 1 1 1 1 1 1 1 1 1 1 1 1 1 1 1 1 1 1 1 1 1 1 1 1 1 1 1 1 1 1 1 1 1 1 1 1 1 1 1 1 1 1 1 1 1 1 1 1 1 1 1 1 1 1 1 1 1 1 1 1 1 1 1 1 1 1 1 1 1 1 1 1 1 1 1 1 1 1 1 1 1 1 1 1 1 1 1 1 1 1 1 1 1 1 1 1 1 1 1 1 1 1 1 1 1 1 1 1 1 1 1 1 1 1 1 1 1 1 1 1 1 1 1 1 1 1 1 1 1 1 1 1 1 1 1 1 1 1 1 1 1 1 1 1 1 1 1 1 1 1 1 1 1 1 1 1 1 1 1 1 1 1 1 1 1 1 1 1 1 1 1 1 1 1 1 1 1 1 1 1 1 1 1 1 1 1 1 1 1 1 1 1 1 1 1 1 1 1 1 1 1 1 1 1 1 1 1 1 1 1 1 1 1 1 1 1 1 1 1 1 1 1 1 1 1 1 1 1 1 1 1 1 1 1 1 1 1 1 1 1 1 1 1 1 1 1 1 1 1 1 1 1 1 1 1 1 1 1 1 1 1 1 1 1 1 1 1 1 1 1 1 1 1 1 1 1 1 1 1 1 1 1 1 1 1 1 1 1 1 1 1 1 1 1 1 1 1 1 1 1 1 1 1 1 1 1 1 1 1 1 1 1 1 1 1 1 1 1 1 1 1 1 1 1 1 1 1 1 1 1 1 1 1 1 1 1 1 1 1 1 1 1 1 1 1 1 1 1 1 1 1 1 1 1 1 1 1 1 1 1 1 1 1 1 1 1 1 1 1 1 1 1 1 1 1 1 1 1 1 1 1 1 1 1 1 1 1 1 1 1 1 1 1 1 1 1 1 1 1 1 1 1 1 1 1 1 1 1 1 1 1 1 1 1 1 1 1 1 1 1 1 1 1 1 1 1 1 1 1 1 1 1 1 1 1 1 1 1 1 1 1 1 1 1 1 1 1 1 1 1 1 1 1 1 1 1 1 1 1 1 1 1 1 1 1 1 1 1 1 1 1 1 1 1 1 1 1 1 1 1 1 1 1 1 1 1 1 1 1 1 1 1 1 1 1 1 1 1 1 1 1 1 1 1 1 1 1 1 1 1 1 1 1 1 1 1 1 1 1 1 1 1 1 1 1 1 1 1 1 1 1 1 1 1 1 1 1 1 1 1 1 1 1 1 1 1 1 1 1 1 1 1 1 1 1 1 1 1 1 1 1 1 1 1 1 1 1 1 1 1 1 1 1 1 1 1 1 1 1 1 1 1 1 1 1 1 1 1 1 1 1 1 1 1 1 1 1 1 1 1 1 1 1 1 1 1 1 1 1 1 1 1 1 1 1 1 1 1 1 1 1 1 1 1 1 1 1 1 1 1 1 1 1 1 1 1 1 1 1 1 1 1 1 1 1 1 1 1 1 1 1 1 1 1 1 1 1 1 1 1 1 1 1 1 1 1 1 1 1 1 1 1 1 1 1 1 1 1 1 1 1 1 1 1 1 1 1 1 1 1 1 1 1 1 1 1 1 1 1 1 1 1 1 1 1 1 1 1 1 1 1 1 1 1 1 1 1 1 1 1 1 1 1 1 1 1 1 1 1 1 1 1 1 1 1 1 1 1 1 1 1 1 1 1 1 1 1 1 1 1 1 1 1 1 1 1 1 1 1 1 1 1 1 1 1 1 1 1 1 1 1 1 1 1 1 1 1 1 1 1 1 1 1 1 1 1 1 1 1 1 1 1 1 1 1 1 1 1 1 1 1 1 1 1 1 1 1 1 1 1 1 1 1 1 1 1 1 1 1 1 1 1 1 1 1 1 1 1 1 1 1 1 1 1 1 1 1 1 1 1 1 1 1 1 1 1 1 1 1 1 1 1 1 1 1 1 1 1 1 1 1 1 1 1 1 1 1 1 1 1 1 1 1 1 1 1 1 1 1 1 1 1 1 1 1 1 1 1 1 1 1 1 1 1 1 1 1 1 1 1 1 1 1 1 1 1 1 1 1 1 1 1 1 1 1 1 1 1 1 1 1 1 1 1 1 1 1 1 1 1 1 1 1 1 1 1 1 1 1 1 1 1 1 1 1 1 1 1 1 1 1 1 1 1 1 1 1 1 1 1 1 1 1 1 1 1 1 1 1 1 1 1 1 1 1 1 1 1 1 1 1 1 1 1 1 1 1 1 1 1 1 1 1 1 1 1 1 1 1 1 1 1 1 1 1 1 1 1 1 1 1 1 1 1 1 1 1 1 1 1 1 1 1 1 1 1 1 1 1 1 1 1 1 1 1 1 1 1 1 1 1 1 1 1 1 1 1 1 1 1 1 1 1 1 1 1 1 1 1 1 1 1 1 1 1 1 1 1 1 1 1 1 1 1 1 1 1 1 1 1 1 1 1 1 1 1 1 1 1 1 1 1 1 1 1 1 1 1 1 1 1 1 1 1 1 1 1 1 1 1 1 1 1 1 1 1 1 1 1 1 1 1 1 1 1 1 1 1 1 1 1 1 1 1 1 1 1 1 1 1 1 1 1 1 1 1 1 1 1 1 1 1 1 1 1 1 1 1 1 1 1 1 1 1 1 1 1 1 1 1 1 1 1 1 1 1 1 1 1 1 1 1 1 1 1 1 1 1 1 1 1 1 1 1 1 1 1 1 1 1 1 1 1 1 1 1 1 1 1 1 1 1 1 1 1 1 1 1 1 1 1 1 1 1 1 1 1 1 1 1 1 1 1 1 1 1 1 1 1 1 1 1 1 1 1 1 1 1 1 1 1 1 1 1 1 1 1 1 1 1 1 1 1 1 1 1 1 1 1 1 1 1 1 1 1 1 1 1 1 1 1 1 1 1 1 1 1 1 1 1 1 1 1 1 1 1 1 1 1 1 1 1 1 1 1 1 1 1 1 1 1 1 1 1 1 1 1 1 1 1 1 1 1 1 1 1 1 1 1 1 1 1 1 1 1 1 1 1 1 1 1 1 1 1 1 1 1 1 1 1 1 1 1 1 1 1 1 1 1 1 1 1 1 1 1 1 1 1 1 1 1 1 1 1 1 1 1 1 1 1 1 1 1 1 1 1 1 1 1 1 1 1 1 1 1 1 1 1 1 1 1 1 1 1 1 1 1 1 1 1 1 1 1 1 1 1 1 1 1 1 1 1 1 1 1 1 1 1 1 1 1 1 1 1 1 1 1 1 1 1 1 1 1 1 1 1 1 1 1 1 1 1 1 1 1 1 1 1 1 1 1 1 1 1 1 1 1 1 1 1 1 1 1 1 1 1 1 1 1 1 1 1 1 1 1 1 1 1 1 1 1 1 1 1 1 1 1 1 1 1 1 1 1 1 1 1 1 1 1 1 1 1 1 1 1 1 1 1 1 1 1 1 1 1 1 1 1 1 1 1 1 1 1 1 1 1 1 1 1 1 1 1 1 1 1 1 1 1 1 1 1 1 1 1 1 1 1 1 1 1 1 1 1 1 1 1 1 1 1 1 1 1 1 1 1 1 1 1 1 1 1 1 1 1 1 1 1 1 1 1 1 1 1 1 1 1 1 1 1 1 1 1 1 1 1 1 1 1 1 1 1 1 1 1 1 1 1 1 1 1 1 1 1 1 1 1 1 1 1 1 1 1 1 1 1 1 1 1 1 1 1 1 1 1 1 1 1 1 1 1 1 1 1 1 1 1 1 1 1 1 1 1 1 1 1 1 1 1 1 1 1 1 1 1 1 1 1 1 1 1 1 1 1 1 1 1 1 1 1 1 1 1</float_array>
          <technique_common>
            <accessor source="#Cube-mesh-colors-Col-array" count="1311" stride="4">
              <param name="R" type="float"/>
              <param name="G" type="float"/>
              <param name="B" type="float"/>
              <param name="A" type="float"/>
            </accessor>
          </technique_common>
        </source>
        <vertices id="Cube-mesh-vertices">
          <input semantic="POSITION" source="#Cube-mesh-positions"/>
        </vertices>
        <triangles material="Material-material" count="437">
          <input semantic="VERTEX" source="#Cube-mesh-vertices" offset="0"/>
          <input semantic="NORMAL" source="#Cube-mesh-normals" offset="1"/>
          <input semantic="TEXCOORD" source="#Cube-mesh-map-0" offset="2" set="0"/>
          <input semantic="COLOR" source="#Cube-mesh-colors-Col" offset="3" set="0"/>
          <p>47 0 0 0 32 0 1 1 97 0 2 2 32 1 3 3 29 1 4 4 96 1 5 5 35 2 6 6 43 2 7 7 95 2 8 8 94 3 9 9 3 3 10 10 34 3 11 11 33 4 12 12 42 4 13 13 93 4 14 14 36 5 15 15 40 5 16 16 92 5 17 17 50 5 18 18 28 5 19 19 91 5 20 20 51 5 21 21 52 5 22 22 90 5 23 23 48 5 24 24 53 5 25 25 89 5 26 26 54 6 27 27 30 6 28 28 124 6 29 29 45 4 30 30 57 4 31 31 86 4 32 32 58 3 33 33 46 3 34 34 85 3 35 35 59 3 36 36 60 3 37 37 84 3 38 38 37 7 39 39 166 7 40 40 128 7 41 41 62 2 42 42 31 2 43 43 82 2 44 44 63 2 45 45 64 2 46 46 81 2 47 47 47 2 48 48 65 2 49 49 80 2 50 50 66 1 51 51 41 1 52 52 79 1 53 53 67 1 54 54 68 1 55 55 78 1 56 56 44 1 57 57 69 1 58 58 77 1 59 59 180 8 60 60 14 8 61 61 44 8 62 62 187 9 63 63 190 9 64 64 202 9 65 65 17 10 66 66 73 10 67 67 175 10 68 68 73 11 69 69 172 11 70 70 195 11 71 71 48 12 72 72 74 12 73 73 176 12 74 74 48 13 75 75 35 13 76 76 74 13 77 77 177 14 78 78 72 14 79 79 15 14 80 80 36 15 81 81 45 15 82 82 0 15 83 83 18 16 84 84 71 16 85 85 178 16 86 86 33 15 87 87 44 15 88 88 2 15 89 89 179 17 90 90 76 17 91 91 33 17 92 92 194 18 93 93 70 18 94 94 180 18 95 95 77 1 96 96 24 1 97 97 67 1 98 98 42 1 99 99 67 1 100 100 12 1 101 101 2 1 102 102 77 1 103 103 42 1 104 104 78 1 105 105 16 1 106 106 34 1 107 107 30 1 108 108 34 1 109 109 3 1 110 110 12 1 111 111 78 1 112 112 30 1 113 113 79 1 114 114 7 1 115 115 46 1 116 116 68 1 117 117 46 1 118 118 16 1 119 119 24 1 120 120 79 1 121 121 68 1 122 122 80 2 123 123 23 2 124 124 63 2 125 125 29 2 126 126 63 2 127 127 11 2 128 128 6 2 129 129 80 2 130 130 29 2 131 131 81 2 132 132 8 2 133 133 26 2 134 134 41 2 135 135 26 2 136 136 7 2 137 137 11 2 138 138 81 2 139 139 41 2 140 140 82 2 141 141 5 2 142 142 38 2 143 143 64 2 144 144 38 2 145 145 8 2 146 146 23 2 147 147 82 2 148 148 64 2 149 149 83 3 150 150 22 3 151 151 59 3 152 152 39 3 153 153 59 3 154 154 9 3 155 155 1 3 156 156 83 3 157 157 39 3 158 158 84 3 159 159 8 3 160 160 38 3 161 161 27 3 162 162 38 3 163 163 5 3 164 164 9 3 165 165 84 3 166 166 27 3 167 167 85 3 168 168 7 3 169 169 26 3 170 170 60 3 171 171 26 3 172 172 8 3 173 173 22 3 174 174 85 3 175 175 60 3 176 176 99 4 177 177 126 4 178 178 86 4 179 179 40 4 180 180 55 4 181 181 10 4 182 182 0 4 183 183 86 4 184 184 40 4 185 185 28 4 186 186 132 4 187 187 105 4 188 188 55 19 189 189 106 19 190 190 28 19 191 191 3 20 192 192 123 20 193 193 108 20 194 194 122 21 195 195 134 21 196 196 163 21 197 197 129 22 198 198 102 22 199 199 138 22 200 200 89 5 201 201 20 5 202 202 51 5 203 203 43 5 204 204 51 5 205 205 13 5 206 206 4 5 207 207 89 5 208 208 43 5 209 209 90 5 210 210 9 5 211 211 27 5 212 212 31 5 213 213 27 5 214 214 5 5 215 215 13 5 216 216 90 5 217 217 31 5 218 218 91 5 219 219 1 5 220 220 39 5 221 221 52 5 222 222 39 5 223 223 9 5 224 224 20 5 225 225 91 5 226 226 52 5 227 227 92 5 228 228 10 5 229 229 50 5 230 230 53 5 231 231 50 5 232 232 20 5 233 233 18 5 234 234 92 5 235 235 53 5 236 236 93 4 237 237 12 4 238 238 54 4 239 239 102 4 240 240 129 4 241 241 57 4 242 242 15 4 243 243 93 4 244 244 57 4 245 245 94 3 246 246 16 3 247 247 58 3 248 248 61 3 249 249 58 3 250 250 22 3 251 251 49 3 252 252 94 3 253 253 113 3 254 254 95 2 255 255 13 2 256 256 62 2 257 257 65 2 258 258 62 2 259 259 23 2 260 260 17 2 261 261 95 2 262 262 65 2 263 263 96 1 264 264 11 1 265 265 66 1 266 266 69 1 267 267 66 1 268 268 24 1 269 269 14 1 270 270 96 1 271 271 69 1 272 272 182 23 273 273 32 23 274 274 14 23 275 275 181 24 276 276 182 24 277 277 183 24 278 278 47 25 279 279 97 25 280 280 181 25 281 281 162 26 282 282 117 26 283 283 124 26 284 284 136 27 285 285 137 27 286 286 160 27 287 287 160 2 288 288 117 2 289 289 102 2 290 290 139 28 291 291 123 28 292 292 159 28 293 293 110 29 294 294 141 29 295 295 100 29 296 296 133 30 297 297 142 30 298 298 157 30 299 299 170 31 300 300 128 31 301 301 166 31 302 302 144 4 303 303 145 4 304 304 155 4 305 305 131 4 306 306 146 4 307 307 154 4 308 308 147 32 309 309 118 32 310 310 153 32 311 311 148 4 312 312 149 4 313 313 152 4 314 314 126 33 315 315 150 33 316 316 151 33 317 317 151 4 318 318 112 4 319 319 148 4 320 320 112 4 321 321 130 4 322 322 103 4 323 323 152 4 324 324 104 4 325 325 131 4 326 326 121 34 327 327 131 34 328 328 87 34 329 329 106 35 330 330 152 35 331 331 121 35 332 332 149 36 333 333 119 36 334 334 104 36 335 335 149 37 336 336 147 37 337 337 153 37 338 338 154 4 339 339 111 4 340 340 144 4 341 341 132 38 342 342 144 38 343 343 105 38 344 344 87 38 345 345 154 38 346 346 132 38 347 347 155 4 348 348 145 4 349 349 167 4 350 350 120 39 351 351 116 39 352 352 37 39 353 353 105 40 354 354 155 40 355 355 120 40 356 356 165 41 357 357 98 41 358 358 115 41 359 359 168 31 360 360 169 31 361 361 170 31 362 362 143 42 363 363 156 42 364 364 168 42 365 365 157 43 366 366 110 43 367 367 140 43 368 368 167 31 369 369 166 31 370 370 101 31 371 371 100 41 372 372 127 41 373 373 165 41 374 374 56 43 375 375 115 43 376 376 113 43 377 377 158 43 378 378 165 43 379 379 56 43 380 380 159 44 381 381 49 44 382 382 125 44 383 383 127 4 384 384 159 4 385 385 125 4 386 386 110 4 387 387 159 4 388 388 141 4 389 389 136 45 390 390 138 45 391 391 109 45 392 392 160 30 393 393 107 30 394 394 133 30 395 395 103 46 396 396 160 46 397 397 118 46 398 398 161 21 399 399 88 21 400 400 122 21 401 401 137 4 402 402 122 4 403 403 107 4 404 404 109 4 405 405 161 4 406 406 137 4 407 407 138 47 408 408 135 47 409 409 109 47 410 410 102 48 411 411 162 48 412 412 138 48 413 413 163 21 414 414 108 21 415 415 139 21 416 416 142 4 417 417 139 4 418 418 110 4 419 419 107 4 420 420 163 4 421 421 142 4 422 422 145 31 423 423 170 31 424 424 167 31 425 425 146 49 426 426 143 49 427 427 111 49 428 428 104 36 429 429 164 36 430 430 146 36 431 431 114 50 432 432 21 50 433 433 130 50 434 434 103 4 435 435 138 4 436 436 136 4 437 437 98 51 438 438 167 51 439 439 101 51 440 440 169 4 441 441 113 4 442 442 128 4 443 443 167 15 444 444 170 15 445 445 165 15 446 446 115 52 447 447 101 52 448 448 166 52 449 449 134 2 450 450 133 2 451 451 157 2 452 452 143 2 453 453 105 2 454 454 120 2 455 455 106 2 456 456 153 2 457 457 99 2 458 458 124 53 459 459 135 53 460 460 162 53 461 461 99 54 462 462 112 54 463 463 153 54 464 464 102 55 465 465 136 55 466 466 160 55 467 467 129 2 468 468 21 2 469 469 118 2 470 470 192 56 471 471 182 56 472 472 70 56 473 473 191 57 474 474 192 57 475 475 201 57 476 476 181 11 477 477 183 11 478 478 191 11 479 479 179 15 480 480 180 15 481 481 76 15 482 482 193 58 483 483 184 58 484 484 179 58 485 485 189 59 486 486 194 59 487 487 200 59 488 488 195 60 489 489 188 60 490 490 199 60 491 491 176 61 492 492 185 61 493 493 196 61 494 494 176 62 495 495 175 62 496 496 185 62 497 497 197 63 498 498 174 63 499 499 72 63 500 500 178 15 501 501 177 15 502 502 75 15 503 503 71 64 504 504 171 64 505 505 198 64 506 506 199 15 507 507 25 15 508 508 187 15 509 509 196 65 510 510 187 65 511 511 171 65 512 512 196 66 513 513 195 66 514 514 199 66 515 515 193 15 516 516 194 15 517 517 184 15 518 518 190 67 519 519 193 67 520 520 174 67 521 521 25 68 522 522 200 68 523 523 190 68 524 524 201 69 525 525 173 69 526 526 189 69 527 527 188 15 528 528 189 15 529 529 25 15 530 530 172 70 531 531 201 70 532 532 188 70 533 533 202 71 534 534 174 71 535 535 197 71 536 536 198 15 537 537 197 15 538 538 186 15 539 539 198 72 540 540 187 72 541 541 202 72 542 542 47 15 543 543 6 15 544 544 32 15 545 545 32 1 546 546 6 1 547 547 29 1 548 548 35 2 549 549 4 2 550 550 43 2 551 551 94 3 552 552 49 3 553 553 3 3 554 554 33 4 555 555 2 4 556 556 42 4 557 557 36 5 558 558 0 5 559 559 40 5 560 560 50 5 561 561 10 5 562 562 28 5 563 563 51 5 564 564 20 5 565 565 52 5 566 566 48 5 567 567 18 5 568 568 53 5 569 569 124 4 570 570 117 4 571 571 54 4 572 572 54 4 573 573 12 4 574 574 30 4 575 575 30 4 576 576 88 4 577 577 124 4 578 578 45 4 579 579 15 4 580 580 57 4 581 581 58 3 582 582 16 3 583 583 46 3 584 584 59 3 585 585 22 3 586 586 60 3 587 587 61 73 588 588 83 73 589 589 128 73 590 590 83 74 591 591 37 74 592 592 128 74 593 593 37 3 594 594 116 3 595 595 166 3 596 596 116 75 597 597 101 75 598 598 166 75 599 599 128 3 600 600 19 3 601 601 61 3 602 602 62 2 603 603 13 2 604 604 31 2 605 605 63 2 606 606 23 2 607 607 64 2 608 608 47 2 609 609 17 2 610 610 65 2 611 611 66 1 612 612 11 1 613 613 41 1 614 614 67 1 615 615 24 1 616 616 68 1 617 617 44 1 618 618 14 1 619 619 69 1 620 620 44 23 621 621 76 23 622 622 180 23 623 623 180 8 624 624 70 8 625 625 14 8 626 626 187 76 627 627 25 76 628 628 190 76 629 629 175 25 630 630 74 25 631 631 35 25 632 632 35 77 633 633 17 77 634 634 175 77 635 635 195 78 636 636 185 78 637 637 175 78 638 638 175 79 639 639 73 79 640 640 195 79 641 641 71 12 642 642 18 12 643 643 176 12 644 644 18 80 645 645 48 80 646 646 176 80 647 647 48 15 648 648 4 15 649 649 35 15 650 650 15 81 651 651 45 81 652 652 177 81 653 653 45 14 654 654 75 14 655 655 177 14 656 656 36 82 657 657 75 82 658 658 45 82 659 659 75 80 660 660 36 80 661 661 178 80 662 662 36 83 663 663 18 83 664 664 178 83 665 665 33 84 666 666 76 84 667 667 44 84 668 668 33 85 669 669 15 85 670 670 179 85 671 671 15 86 672 672 72 86 673 673 179 86 674 674 180 56 675 675 184 56 676 676 194 56 677 677 194 87 678 678 173 87 679 679 70 87 680 680 77 1 681 681 69 1 682 682 24 1 683 683 42 1 684 684 77 1 685 685 67 1 686 686 2 1 687 687 44 1 688 688 77 1 689 689 78 1 690 690 68 1 691 691 16 1 692 692 30 1 693 693 78 1 694 694 34 1 695 695 12 1 696 696 67 1 697 697 78 1 698 698 79 1 699 699 41 1 700 700 7 1 701 701 68 1 702 702 79 1 703 703 46 1 704 704 24 1 705 705 66 1 706 706 79 1 707 707 80 2 708 708 65 2 709 709 23 2 710 710 29 2 711 711 80 2 712 712 63 2 713 713 6 2 714 714 47 2 715 715 80 2 716 716 81 2 717 717 64 2 718 718 8 2 719 719 41 2 720 720 81 2 721 721 26 2 722 722 11 2 723 723 63 2 724 724 81 2 725 725 82 2 726 726 31 2 727 727 5 2 728 728 64 2 729 729 82 2 730 730 38 2 731 731 23 2 732 732 62 2 733 733 82 2 734 734 83 3 735 735 61 3 736 736 22 3 737 737 39 3 738 738 83 3 739 739 59 3 740 740 1 88 741 741 37 88 742 742 83 88 743 743 84 3 744 744 60 3 745 745 8 3 746 746 27 3 747 747 84 3 748 748 38 3 749 749 9 3 750 750 59 3 751 751 84 3 752 752 85 3 753 753 46 3 754 754 7 3 755 755 60 3 756 756 85 3 757 757 26 3 758 758 22 3 759 759 58 3 760 760 85 3 761 761 126 4 762 762 55 4 763 763 86 4 764 764 86 4 765 765 57 4 766 766 99 4 767 767 57 4 768 768 21 4 769 769 114 4 770 770 114 4 771 771 99 4 772 772 57 4 773 773 40 4 774 774 86 4 775 775 55 4 776 776 0 4 777 777 45 4 778 778 86 4 779 779 37 4 780 780 1 4 781 781 120 4 782 782 1 89 783 783 28 89 784 784 105 89 785 785 120 90 786 786 1 90 787 787 105 90 788 788 28 4 789 789 87 4 790 790 132 4 791 791 126 91 792 792 151 91 793 793 55 91 794 794 151 39 795 795 148 39 796 796 106 39 797 797 106 92 798 798 121 92 799 799 28 92 800 800 121 4 801 801 87 4 802 802 28 4 803 803 106 93 804 804 55 93 805 805 151 93 806 806 10 4 807 807 55 4 808 808 28 4 809 809 3 4 810 810 49 4 811 811 123 4 812 812 108 4 813 813 134 4 814 814 30 4 815 815 134 4 816 816 88 4 817 817 30 4 818 818 108 94 819 819 30 94 820 820 3 94 821 821 122 21 822 822 88 21 823 823 134 21 824 824 138 95 825 825 130 95 826 826 129 95 827 827 130 48 828 828 21 48 829 829 129 48 830 830 89 5 831 831 53 5 832 832 20 5 833 833 43 5 834 834 89 5 835 835 51 5 836 836 4 5 837 837 48 5 838 838 89 5 839 839 90 5 840 840 52 5 841 841 9 5 842 842 31 5 843 843 90 5 844 844 27 5 845 845 13 5 846 846 51 5 847 847 90 5 848 848 91 5 849 849 28 5 850 850 1 5 851 851 52 5 852 852 91 5 853 853 39 5 854 854 20 5 855 855 50 5 856 856 91 5 857 857 92 5 858 858 40 5 859 859 10 5 860 860 53 5 861 861 92 5 862 862 50 5 863 863 18 5 864 864 36 5 865 865 92 5 866 866 93 4 867 867 42 4 868 868 12 4 869 869 129 4 870 870 21 4 871 871 57 4 872 872 57 4 873 873 93 4 874 874 102 4 875 875 93 4 876 876 54 4 877 877 117 4 878 878 117 4 879 879 102 4 880 880 93 4 881 881 15 4 882 882 33 4 883 883 93 4 884 884 94 3 885 885 34 3 886 886 16 3 887 887 61 3 888 888 94 3 889 889 58 3 890 890 94 96 891 891 61 96 892 892 113 96 893 893 61 3 894 894 19 3 895 895 113 3 896 896 113 3 897 897 115 3 898 898 49 3 899 899 115 3 900 900 98 3 901 901 125 3 902 902 49 3 903 903 115 3 904 904 125 3 905 905 95 2 906 906 43 2 907 907 13 2 908 908 65 2 909 909 95 2 910 910 62 2 911 911 17 2 912 912 35 2 913 913 95 2 914 914 96 1 915 915 29 1 916 916 11 1 917 917 69 1 918 918 96 1 919 919 66 1 920 920 14 1 921 921 32 1 922 922 96 1 923 923 14 97 924 924 70 97 925 925 182 97 926 926 182 97 927 927 97 97 928 928 32 97 929 929 181 15 930 930 97 15 931 931 182 15 932 932 181 98 933 933 73 98 934 934 17 98 935 935 17 99 936 936 47 99 937 937 181 99 938 938 136 100 939 939 109 100 940 940 137 100 941 941 160 2 942 942 124 2 943 943 117 2 944 944 139 28 945 945 108 28 946 946 123 28 947 947 100 101 948 948 158 101 949 949 140 101 950 950 140 102 951 951 110 102 952 952 100 102 953 953 133 30 954 954 107 30 955 955 142 30 956 956 170 103 957 957 169 103 958 958 128 103 959 959 144 4 960 960 111 4 961 961 145 4 962 962 131 4 963 963 104 4 964 964 146 4 965 965 147 104 966 966 103 104 967 967 118 104 968 968 148 4 969 969 112 4 970 970 149 4 971 971 126 22 972 972 99 22 973 973 150 22 974 974 151 4 975 975 150 4 976 976 112 4 977 977 112 4 978 978 150 4 979 979 130 4 980 980 103 4 981 981 147 4 982 982 112 4 983 983 152 4 984 984 149 4 985 985 104 4 986 986 121 105 987 987 152 105 988 988 131 105 989 989 106 35 990 990 148 35 991 991 152 35 992 992 149 106 993 993 153 106 994 994 119 106 995 995 149 2 996 996 112 2 997 997 147 2 998 998 154 4 999 999 146 4 1000 1000 111 4 1001 1001 132 107 1002 1002 154 107 1003 1003 144 107 1004 1004 87 107 1005 1005 131 107 1006 1006 154 107 1007 1007 101 4 1008 1008 116 4 1009 1009 167 4 1010 1010 116 4 1011 1011 155 4 1012 1012 167 4 1013 1013 120 108 1014 1014 155 108 1015 1015 116 108 1016 1016 105 109 1017 1017 144 109 1018 1018 155 109 1019 1019 165 110 1020 1020 127 110 1021 1021 98 110 1022 1022 168 103 1023 1023 156 103 1024 1024 169 103 1025 1025 168 111 1026 1026 145 111 1027 1027 111 111 1028 1028 111 112 1029 1029 143 112 1030 1030 168 112 1031 1031 157 30 1032 1032 142 30 1033 1033 110 30 1034 1034 167 113 1035 1035 170 113 1036 1036 166 113 1037 1037 100 110 1038 1038 141 110 1039 1039 127 110 1040 1040 56 43 1041 1041 165 43 1042 1042 115 43 1043 1043 158 43 1044 1044 100 43 1045 1045 165 43 1046 1046 159 114 1047 1047 123 114 1048 1048 49 114 1049 1049 125 4 1050 1050 98 4 1051 1051 127 4 1052 1052 127 4 1053 1053 141 4 1054 1054 159 4 1055 1055 110 4 1056 1056 139 4 1057 1057 159 4 1058 1058 160 43 1059 1059 137 43 1060 1060 107 43 1061 1061 103 115 1062 1062 136 115 1063 1063 160 115 1064 1064 161 116 1065 1065 124 116 1066 1066 88 116 1067 1067 137 4 1068 1068 161 4 1069 1069 122 4 1070 1070 109 4 1071 1071 135 4 1072 1072 161 4 1073 1073 138 47 1074 1074 162 47 1075 1075 135 47 1076 1076 102 22 1077 1077 117 22 1078 1078 162 22 1079 1079 163 116 1080 1080 134 116 1081 1081 108 116 1082 1082 142 4 1083 1083 163 4 1084 1084 139 4 1085 1085 107 4 1086 1086 122 4 1087 1087 163 4 1088 1088 145 113 1089 1089 168 113 1090 1090 170 113 1091 1091 146 106 1092 1092 164 106 1093 1093 143 106 1094 1094 104 117 1095 1095 119 117 1096 1096 164 117 1097 1097 130 48 1098 1098 150 48 1099 1099 114 48 1100 1100 150 22 1101 1101 99 22 1102 1102 114 22 1103 1103 103 4 1104 1104 130 4 1105 1105 138 4 1106 1106 98 118 1107 1107 127 118 1108 1108 167 118 1109 1109 169 4 1110 1110 56 4 1111 1111 113 4 1112 1112 169 15 1113 1113 56 15 1114 1114 170 15 1115 1115 56 15 1116 1116 165 15 1117 1117 170 15 1118 1118 165 15 1119 1119 127 15 1120 1120 167 15 1121 1121 166 119 1122 1122 128 119 1123 1123 113 119 1124 1124 115 15 1125 1125 98 15 1126 1126 101 15 1127 1127 166 120 1128 1128 113 120 1129 1129 115 120 1130 1130 49 2 1131 1131 123 2 1132 1132 56 2 1133 1133 123 2 1134 1134 108 2 1135 1135 158 2 1136 1136 49 2 1137 1137 56 2 1138 1138 113 2 1139 1139 134 2 1140 1140 88 2 1141 1141 133 2 1142 1142 88 2 1143 1143 124 2 1144 1144 160 2 1145 1145 56 2 1146 1146 123 2 1147 1147 158 2 1148 1148 88 2 1149 1149 160 2 1150 1150 133 2 1151 1151 108 2 1152 1152 134 2 1153 1153 140 2 1154 1154 140 2 1155 1155 158 2 1156 1156 108 2 1157 1157 157 2 1158 1158 140 2 1159 1159 134 2 1160 1160 169 2 1161 1161 156 2 1162 1162 120 2 1163 1163 156 2 1164 1164 143 2 1165 1165 120 2 1166 1166 169 2 1167 1167 120 2 1168 1168 37 2 1169 1169 164 2 1170 1170 119 2 1171 1171 87 2 1172 1172 119 2 1173 1173 153 2 1174 1174 121 2 1175 1175 128 2 1176 1176 169 2 1177 1177 37 2 1178 1178 119 2 1179 1179 121 2 1180 1180 87 2 1181 1181 143 2 1182 1182 164 2 1183 1183 132 2 1184 1184 87 2 1185 1185 132 2 1186 1186 164 2 1187 1187 132 2 1188 1188 105 2 1189 1189 143 2 1190 1190 99 2 1191 1191 126 2 1192 1192 106 2 1193 1193 106 2 1194 1194 121 2 1195 1195 153 2 1196 1196 124 121 1197 1197 161 121 1198 1198 135 121 1199 1199 99 5 1200 1200 150 5 1201 1201 112 5 1202 1202 102 122 1203 1203 138 122 1204 1204 136 122 1205 1205 21 2 1206 1206 114 2 1207 1207 118 2 1208 1208 114 2 1209 1209 99 2 1210 1210 153 2 1211 1211 118 2 1212 1212 114 2 1213 1213 153 2 1214 1214 118 2 1215 1215 160 2 1216 1216 129 2 1217 1217 160 2 1218 1218 102 2 1219 1219 129 2 1220 1220 70 56 1221 1221 173 56 1222 1222 192 56 1223 1223 192 18 1224 1224 183 18 1225 1225 182 18 1226 1226 191 15 1227 1227 183 15 1228 1228 192 15 1229 1229 191 123 1230 1230 172 123 1231 1231 73 123 1232 1232 73 124 1233 1233 181 124 1234 1234 191 124 1235 1235 179 125 1236 1236 184 125 1237 1237 180 125 1238 1238 179 126 1239 1239 72 126 1240 1240 193 126 1241 1241 72 63 1242 1242 174 63 1243 1243 193 63 1244 1244 189 127 1245 1245 173 127 1246 1246 194 127 1247 1247 195 128 1248 1248 172 128 1249 1249 188 128 1250 1250 171 129 1251 1251 71 129 1252 1252 196 129 1253 1253 71 130 1254 1254 176 130 1255 1255 196 130 1256 1256 176 15 1257 1257 74 15 1258 1258 175 15 1259 1259 72 131 1260 1260 177 131 1261 1261 197 131 1262 1262 177 132 1263 1263 186 132 1264 1264 197 132 1265 1265 178 133 1266 1266 186 133 1267 1267 177 133 1268 1268 186 129 1269 1269 178 129 1270 1270 198 129 1271 1271 178 134 1272 1272 71 134 1273 1273 198 134 1274 1274 199 15 1275 1275 188 15 1276 1276 25 15 1277 1277 196 65 1278 1278 199 65 1279 1279 187 65 1280 1280 196 15 1281 1281 185 15 1282 1282 195 15 1283 1283 193 135 1284 1284 200 135 1285 1285 194 135 1286 1286 190 136 1287 1287 200 136 1288 1288 193 136 1289 1289 25 137 1290 1290 189 137 1291 1291 200 137 1292 1292 201 138 1293 1293 192 138 1294 1294 173 138 1295 1295 188 15 1296 1296 201 15 1297 1297 189 15 1298 1298 172 128 1299 1299 191 128 1300 1300 201 128 1301 1301 202 136 1302 1302 190 136 1303 1303 174 136 1304 1304 198 139 1305 1305 202 139 1306 1306 197 139 1307 1307 198 140 1308 1308 171 140 1309 1309 187 140 1310 1310</p>
        </triangles>
      </mesh>
    </geometry>
  </library_geometries>
  <library_visual_scenes>
    <visual_scene id="Scene" name="Scene">
      <node id="Cube" name="Cube" type="NODE">
        <matrix sid="transform">6.9491 0 0 0 0 6.9491 0 0 0 0 6.9491 6.99507 0 0 0 1</matrix>
        <instance_geometry url="#Cube-mesh" name="Cube">
          <bind_material>
            <technique_common>
              <instance_material symbol="Material-material" target="#Material-material">
                <bind_vertex_input semantic="UVMap" input_semantic="TEXCOORD" input_set="0"/>
              </instance_material>
            </technique_common>
          </bind_material>
        </instance_geometry>
      </node>
    </visual_scene>
  </library_visual_scenes>
  <scene>
    <instance_visual_scene url="#Scene"/>
  </scene>
</COLLADA>