<?xml version="1.0" encoding="utf-8"?>
<COLLADA xmlns="http://www.collada.org/2005/11/COLLADASchema" version="1.4.1" xmlns:xsi="http://www.w3.org/2001/XMLSchema-instance">
  <asset>
    <contributor>
      <author>Blender User</author>
      <authoring_tool>Blender 2.83.5</authoring_tool>
    </contributor>
    <created>2026-01-20T17:42:27</created>
    <modified>2026-01-20T17:42:27</modified>
    <unit name="meter" meter="1"/>
    <up_axis>Z_UP</up_axis>
  </asset>
  <library_effects>
    <effect id="Default_OBJ-effect">
      <profile_COMMON>
        <technique sid="common">
          <lambert>
            <emission>
              <color sid="emission">0 0 0 1</color>
            </emission>
            <diffuse>
              <color sid="diffuse">0.8 0.8 0.8 1</color>
            </diffuse>
            <index_of_refraction>
              <float sid="ior">1.45</float>
            </index_of_refraction>
          </lambert>
        </technique>
      </profile_COMMON>
    </effect>
  </library_effects>
  <library_images/>
  <library_materials>
    <material id="Default_OBJ-material" name="Default OBJ">
      <instance_effect url="#Default_OBJ-effect"/>
    </material>
  </library_materials>
  <library_geometries>
    <geometry id="Plane_001-mesh" name="Plane.001">
      <mesh>
        <source id="Plane_001-mesh-positions">
          <float_array id="Plane_001-mesh-positions-array" count="780">9.780402 5.023237 0.5675976 9.859805 4.753627 -0.04818212 10.22933 3.528187 -0.04818212 10.31221 3.259627 0.5675976 9.885087 4.701292 3.030688 9.841235 4.840417 2.414915 10.26183 3.445596 2.414915 10.22146 3.585772 3.030688 9.882267 4.698044 1.799143 9.808783 4.935434 1.18337 10.28732 3.348479 1.18337 10.21732 3.586912 1.799143 9.958692 4.463497 3.646461 10.15134 3.824617 3.646461 9.031212 3.909847 0.6907485 8.942107 3.887684 -0.04818212 11.04781 4.358609 -0.04818212 10.95775 4.340714 0.6907485 9.465966 4.016025 3.646461 9.107502 3.933622 2.90753 10.8786 4.329719 2.90753 10.51918 4.251576 3.646461 9.302368 3.974962 2.168608 10.68469 4.284119 2.168608 9.02879 3.911541 1.429677 10.95922 4.343272 1.429677 10.54079 4.888162 0.5675976 10.38849 4.651941 -0.04818212 9.701878 3.571747 -0.04818212 9.55265 3.333577 0.5675976 10.36537 4.598617 3.030688 10.44208 4.722689 2.414915 9.660574 3.493184 2.414915 9.740353 3.615307 3.030688 10.36107 4.598639 1.799143 10.49283 4.809321 1.18337 9.60368 3.410459 1.18337 9.738508 3.619199 1.799143 10.23338 4.387567 3.646461 9.87542 3.824407 3.646461 9.208354 4.728284 0.6907485 9.133378 4.781279 -0.04818212 10.8653 3.494339 -0.04818212 10.79292 3.550844 0.6907485 9.57272 4.468424 3.646468 9.276194 4.686044 2.90753 10.7329 3.603599 2.90753 10.43898 3.824729 3.646461 9.434773 4.565489 2.168608 10.57172 3.720652 2.168608 9.208064 4.731224 1.429677 10.79582 3.551406 1.429677 3.059135 8.241712 0.5675976 3.13853 7.972102 -0.04818212 3.508055 6.746662 -0.04818212 3.590938 6.478101 0.5675976 3.163813 7.919766 3.030688 3.11996 8.058899 2.414915 3.54056 6.664072 2.414915 3.500195 6.804246 3.030688 3.160993 7.916526 1.799143 3.087507 8.153909 1.18337 3.566045 6.566955 1.18337 3.496048 6.805394 1.799143 3.237418 7.681972 3.646461 3.43007 7.043092 3.646461 2.309938 7.128322 0.6907485 2.220837 7.106159 -0.04818212 4.326538 7.577092 -0.04818212 4.236477 7.559189 0.6907485 2.74469 7.234507 3.646461 2.386228 7.152097 2.90753 4.157322 7.548202 2.90753 3.797915 7.470052 3.646461 2.581093 7.193444 2.168608 3.963418 7.502593 2.168608 2.307515 7.130017 1.429677 4.23794 7.561754 1.429677 3.819515 8.106637 0.5675976 3.667212 7.870417 -0.04818212 2.98061 6.790229 -0.04818212 2.831375 6.552059 0.5675976 3.644098 7.817099 3.030688 3.720807 7.941171 2.414915 2.9393 6.711667 2.414915 3.019078 6.833789 3.030688 3.639793 7.817114 1.799143 3.77156 8.027805 1.18337 2.882405 6.628942 1.18337 3.01724 6.837674 1.799143 3.512105 7.606042 3.646461 3.154145 7.042889 3.646461 2.487088 7.946759 0.6907485 2.412103 7.999755 -0.04818212 4.144025 6.712822 -0.04818212 4.07165 6.769319 0.6907485 2.851445 7.686899 3.646461 2.554917 7.904519 2.90753 4.011628 6.822082 2.90753 3.71771 7.043204 3.646461 2.713498 7.783964 2.168608 3.850445 6.939126 2.168608 2.486787 7.949699 1.429677 4.074545 6.769889 1.429677 1.865 11.83549 0.5675976 1.944396 11.56588 -0.04818212 2.31392 10.34044 -0.04818212 2.396803 10.07188 0.5675976 1.969678 11.51355 3.030688 1.925825 11.65267 2.414915 2.346426 10.25785 2.414915 2.30606 10.39802 3.030688 1.966857 11.5103 1.799143 1.893373 11.74768 1.18337 2.37191 10.16074 1.18337 2.301913 10.39917 1.799143 2.043282 11.27575 3.646461 2.235936 10.63687 3.646461 1.115803 10.7221 0.6907485 1.026703 10.69994 -0.04818212 3.132402 11.17087 -0.04818212 3.042342 11.15296 0.6907485 1.550555 10.82828 3.646461 1.192093 10.74588 2.90753 2.963195 11.14198 2.90753 2.60378 11.06383 3.646461 1.386958 10.78722 2.168608 2.769283 11.09637 2.168608 1.11338 10.7238 1.429677 3.043805 11.15553 1.429677 2.62538 11.70042 0.5675976 2.473078 11.4642 -0.04818212 1.786475 10.384 -0.04818212 1.63724 10.14583 0.5675976 2.449962 11.41087 3.030688 2.526673 11.53495 2.414915 1.745165 10.30544 2.414915 1.824942 10.42756 3.030688 2.445665 11.41089 1.799143 2.577425 11.62158 1.18337 1.68827 10.22272 1.18337 1.823105 10.43146 1.799143 2.31797 11.19982 3.646461 1.96001 10.63666 3.646461 1.292953 11.54054 0.6907485 1.217967 11.59354 -0.04818212 2.94989 10.3066 -0.04818212 2.877515 10.36309 0.6907485 1.65731 11.28068 3.646461 1.360782 11.49829 2.90753 2.817493 10.41586 2.90753 2.523575 10.63698 3.646461 1.519363 11.37775 2.168608 2.65631 10.53291 2.168608 1.292653 11.54347 1.429677 2.88041 10.36366 1.429677 9.609815 11.84686 0.5675905 9.689218 11.57725 -0.04818212 10.05873 10.35181 -0.04818212 10.14162 10.08325 0.5675976 9.7145 11.52492 3.030688 9.670648 11.66404 2.414915 10.09124 10.26922 2.414915 10.05087 10.4094 3.030688 9.711672 11.52167 1.799143 9.638195 11.75905 1.18337 10.11672 10.17211 1.18337 10.04673 10.41054 1.799143 9.788105 11.28712 3.646461 9.980751 10.64824 3.646461 8.860619 10.73347 0.6907485 8.771517 10.7113 -0.04818212 10.87722 11.18224 -0.04818212 10.78716 11.16433 0.6907485 9.29537 10.83965 3.646461 8.936915 10.75725 2.90753 10.70801 11.15335 2.90753 10.3486 11.0752 3.646461 9.131772 10.79859 2.168608 10.5141 11.10775 2.168608 8.858203 10.73517 1.429677 10.78863 11.1669 1.429677 10.37019 11.71179 0.5675976 10.2179 11.47557 -0.04818212 9.531291 10.39537 -0.04818212 9.382061 10.1572 0.5675976 10.19478 11.42224 3.030688 10.27149 11.54632 2.414915 9.489979 10.31682 2.414915 9.569765 10.43894 3.030688 10.19048 11.42227 1.799143 10.32225 11.63295 1.18337 9.433085 10.23409 1.18337 9.567919 10.44283 1.799143 10.06278 11.21119 3.646461 9.704833 10.64803 3.646461 9.037768 11.55191 0.6907485 8.962792 11.60491 -0.04818212 10.6947 10.31797 -0.04818212 10.62233 10.37447 0.6907485 9.402132 11.29205 3.646468 9.105598 11.50966 2.90753 10.56231 10.42723 2.90753 10.26839 10.64836 3.646461 9.264178 11.38912 2.168608 10.40113 10.54428 2.168608 9.037475 11.55485 1.429677 10.62523 10.37503 1.429677 10.00785 8.77623 0.5675976 10.08726 8.506619 -0.04818212 10.45678 7.281179 -0.04818212 10.53966 7.012619 0.5675976 10.11254 8.454292 3.030688 10.06869 8.593418 2.414915 10.48929 7.198589 2.414915 10.44892 7.338764 3.030688 10.10972 8.451045 1.799143 10.03623 8.688427 1.18337 10.51477 7.101472 1.18337 10.44477 7.339911 1.799143 10.18614 8.216489 3.646461 10.3788 7.577609 3.646461 9.258666 7.662839 0.6907485 9.169565 7.640676 -0.04818212 11.27526 8.111609 -0.04818212 11.18521 8.093707 0.6907485 9.693418 7.769023 3.646461 9.334955 7.686614 2.90753 11.10606 8.082719 2.90753 10.74664 8.00457 3.646461 9.529819 7.727962 2.168608 10.91215 8.037112 2.168608 9.25625 7.664534 1.429677 11.18667 8.096273 1.429677 10.76824 8.641155 0.5675976 10.61595 8.404934 -0.04818212 9.929338 7.324739 -0.04818212 9.780111 7.086569 0.5675976 10.59282 8.351616 3.030688 10.66953 8.475689 2.414915 9.888029 7.246183 2.414915 9.967813 7.368306 3.030688 10.58853 8.351633 1.799143 10.72029 8.562323 1.18337 9.831133 7.163459 1.18337 9.965968 7.372191 1.799143 10.46083 8.140559 3.646461 10.10287 7.577406 3.646461 9.435815 8.481277 0.6907485 9.360838 8.534272 -0.04818212 11.09275 7.247339 -0.04818212 11.02038 7.303837 0.6907485 9.800173 8.221417 3.646468 9.503645 8.439038 2.90753 10.96036 7.356599 2.90753 10.66644 7.577721 3.646461 9.662226 8.318482 2.168608 10.79917 7.473644 2.168608 9.435522 8.484217 1.429677 11.02328 7.304407 1.429677</float_array>
          <technique_common>
            <accessor source="#Plane_001-mesh-positions-array" count="260" stride="3">
              <param name="X" type="float"/>
              <param name="Y" type="float"/>
              <param name="Z" type="float"/>
            </accessor>
          </technique_common>
        </source>
        <source id="Plane_001-mesh-normals">
          <float_array id="Plane_001-mesh-normals-array" count="780">-0.9574136 -0.2887048 0.002949953 -0.957414 -0.2887037 0.002954065 -0.9574136 -0.2887049 0.002956151 -0.9574144 -0.2887024 0.002952456 -0.9574141 -0.2887033 0.002952992 -0.9574148 -0.2887011 0.002954125 -0.9574143 -0.2887026 0.002954363 -0.9574142 -0.2887029 0.0029549 -0.9574142 -0.2887033 0.0029549 -0.9574143 -0.2887025 0.002956807 -0.9574133 -0.2887061 0.002962052 -0.957414 -0.2887034 0.002958238 -0.9574141 -0.2887032 0.002950906 0.218252 -0.9758881 0.002952575 0.2182542 -0.9758875 0.002963721 0.2182554 -0.9758872 0.002956569 0.2182539 -0.9758876 0.002951681 0.2182557 -0.9758872 0.002953886 0.2182576 -0.9758867 0.002960324 0.2182536 -0.9758877 0.002956449 0.2182528 -0.9758878 0.00295484 0.2182551 -0.9758874 0.002952992 0.2182574 -0.9758868 0.002957701 0.218252 -0.975888 0.00295329 -0.8439381 0.5364326 0.002954423 -0.8439386 0.5364318 0.002960622 -0.8439384 0.5364322 0.002955079 -0.843939 0.5364312 0.002953052 -0.8439388 0.5364313 0.002959609 -0.8439393 0.5364308 0.002954185 -0.8439388 0.5364313 0.002952158 -0.843939 0.5364311 0.002954781 -0.8439396 0.5364302 0.00295633 -0.8439393 0.5364308 0.002956271 -0.8439396 0.5364302 0.002955675 -0.8439395 0.5364303 0.002954959 -0.8439389 0.5364313 0.002959728 -0.5964298 -0.80266 0.002954661 -0.5964316 -0.8026585 0.002954721 -0.5964288 -0.8026607 0.002955496 -0.5964338 -0.802657 0.002955734 -0.5964339 -0.8026568 0.002960205 -0.5964325 -0.802658 0.002954304 -0.5964345 -0.8026564 0.002954185 -0.5964341 -0.8026566 0.002957105 -0.5964336 -0.8026571 0.002957224 -0.5964332 -0.8026574 0.00295192 -0.5964308 -0.8026592 0.002957999 -0.9574143 -0.2887027 0.002953588 -0.9574147 -0.2887015 0.002954959 -0.9574149 -0.2887008 0.002954006 -0.957414 -0.2887036 0.002952754 -0.9574142 -0.2887033 0.002954125 -0.9574134 -0.2887055 0.002956569 -0.9574142 -0.2887032 0.002952873 -0.9574143 -0.2887029 0.002955198 -0.9574145 -0.2887021 0.002956449 -0.9574136 -0.2887053 0.002951741 -0.9574134 -0.2887057 0.002952754 -0.9574146 -0.2887019 0.002955734 -0.9574147 -0.2887012 0.00295186 0.2182551 -0.9758873 0.002953588 0.2182548 -0.9758874 0.00295639 0.2182557 -0.9758872 0.002953469 0.2182551 -0.9758873 0.002954602 0.2182531 -0.9758877 0.002954006 0.2182496 -0.9758886 0.002942323 0.2182554 -0.9758872 0.002956271 0.2182567 -0.975887 0.002954483 0.2182546 -0.9758874 0.002955377 0.218252 -0.975888 0.00295639 0.2182561 -0.9758871 0.002957105 -0.8439372 0.536434 0.002952516 -0.8439373 0.5364338 0.002957046 -0.8439382 0.5364325 0.002952933 -0.8439388 0.5364313 0.002955973 -0.8439384 0.536432 0.002954781 -0.8439386 0.5364317 0.002955913 -0.8439397 0.5364301 0.002955019 -0.843939 0.5364312 0.00295794 -0.8439416 0.536427 0.002955853 -0.8439379 0.5364328 0.00295937 -0.8439363 0.5364353 0.002954542 -0.8439394 0.5364307 0.002950668 -0.84394 0.5364295 0.002953648 -0.5964302 -0.8026596 0.002953886 -0.5964308 -0.802659 0.002952694 -0.5964313 -0.8026587 0.002953648 -0.5964314 -0.8026587 0.002956688 -0.5964323 -0.802658 0.002957105 -0.596431 -0.802659 0.002956092 -0.5964314 -0.8026586 0.002956807 -0.5964313 -0.8026588 0.002955377 -0.5964319 -0.8026583 0.002953946 -0.5964343 -0.8026565 0.002954006 -0.5964301 -0.8026597 0.0029549 -0.9574142 -0.288703 0.002953231 -0.957415 -0.2887006 0.002954721 -0.9574152 -0.2886998 0.002955257 -0.957414 -0.2887035 0.002955079 -0.9574142 -0.2887028 0.002955079 -0.957414 -0.2887035 0.002957582 -0.9574143 -0.2887029 0.002954721 -0.9574146 -0.2887016 0.002955019 -0.9574142 -0.2887027 0.002952873 -0.9574137 -0.2887046 0.002953469 -0.9574128 -0.2887076 0.002948701 -0.9574139 -0.2887041 0.002949893 -0.9574146 -0.2887018 0.002954244 0.2182515 -0.9758881 0.002955198 0.2182514 -0.9758882 0.002954244 0.2182521 -0.975888 0.002954423 0.2182533 -0.9758877 0.002955973 0.2182528 -0.9758878 0.002956092 0.2182562 -0.9758871 0.002948939 0.2182524 -0.9758879 0.002954721 0.2182518 -0.9758881 0.002957522 0.2182528 -0.9758878 0.002956509 0.2182523 -0.975888 0.002952873 0.2182526 -0.975888 0.002954244 -0.8439384 0.5364319 0.002955198 -0.8439386 0.5364319 0.002951443 -0.8439387 0.5364316 0.002956688 -0.8439392 0.5364308 0.002953588 -0.8439391 0.5364308 0.002955675 -0.8439391 0.536431 0.002952873 -0.843938 0.5364326 0.002958595 -0.8439385 0.5364319 0.002955794 -0.8439363 0.5364354 0.002956748 -0.8439392 0.5364308 0.002957046 -0.8439396 0.5364302 0.002959132 -0.8439391 0.536431 0.002957642 -0.8439382 0.5364325 0.002952456 -0.5964313 -0.8026588 0.002951562 -0.5964329 -0.8026576 0.002952098 -0.5964333 -0.8026573 0.002953886 -0.5964301 -0.8026596 0.002958178 -0.5964324 -0.802658 0.002954185 -0.5964358 -0.8026555 0.002943515 -0.5964319 -0.8026583 0.002959609 -0.5964283 -0.802661 0.002952575 -0.5964311 -0.8026589 0.002953529 -0.5964324 -0.8026579 0.002961516 -0.5964314 -0.8026587 0.002956032 -0.9574151 -0.2886998 0.002952694 -0.9574151 -0.2887001 0.002953469 -0.9574149 -0.2887006 0.002954125 -0.9574159 -0.2886971 0.002955138 -0.9574151 -0.2887001 0.002957105 -0.9574152 -0.2886997 0.002955198 -0.9574146 -0.2887015 0.00295341 -0.9574146 -0.2887018 0.00295329 -0.9574147 -0.2887011 0.002955377 -0.9574159 -0.2886976 0.002952694 -0.9574173 -0.2886928 0.002956807 -0.9574153 -0.2886994 0.002953708 -0.9574161 -0.2886967 0.002959549 0.2182511 -0.9758883 0.00296092 0.2182515 -0.9758881 0.002955675 0.2182514 -0.9758881 0.002957761 0.2182552 -0.9758873 0.002954959 0.218254 -0.9758875 0.002956688 0.2182569 -0.9758869 0.002948939 0.2182537 -0.9758877 0.002956211 0.2182532 -0.9758878 0.002954423 0.2182537 -0.9758876 0.002953231 0.2182562 -0.975887 0.002955615 0.2182518 -0.975888 0.002957463 -0.8439392 0.5364308 0.00295782 -0.8439397 0.5364301 0.002954423 -0.843939 0.536431 0.002957463 -0.8439366 0.536435 0.002958893 -0.8439375 0.5364335 0.002959012 -0.8439368 0.5364345 0.002951979 -0.8439391 0.5364309 0.002956926 -0.8439366 0.5364348 0.002952277 -0.8439386 0.5364319 0.002954065 -0.8439395 0.5364304 0.002955794 -0.8439446 0.5364222 0.002970159 -0.843937 0.5364342 0.002952098 -0.8439351 0.5364372 0.002956569 -0.5964317 -0.8026585 0.002954304 -0.5964329 -0.8026576 0.002957165 -0.5964308 -0.8026591 0.002956151 -0.5964313 -0.8026587 0.002955496 -0.5964307 -0.802659 0.002963304 -0.5964335 -0.8026571 0.002970457 -0.5964309 -0.802659 0.002952575 -0.5964293 -0.8026602 0.002954542 -0.5964315 -0.8026585 0.002958118 -0.5964317 -0.8026584 0.002951323 -0.5964327 -0.8026578 0.002955079 -0.9574137 -0.2887045 0.002951264 -0.957414 -0.2887037 0.00295484 -0.9574136 -0.2887049 0.0029549 -0.957414 -0.2887036 0.002952039 -0.9574143 -0.2887029 0.002955377 -0.9574138 -0.288704 0.002955496 -0.957414 -0.2887033 0.002958416 -0.9574141 -0.2887033 0.002955734 -0.9574148 -0.2887011 0.002957224 -0.9574134 -0.2887057 0.002949476 -0.9574133 -0.2887063 0.002952456 -0.957414 -0.2887036 0.002955436 -0.9574146 -0.2887019 0.00295341 0.2182542 -0.9758875 0.002952098 0.2182545 -0.9758874 0.002954959 0.2182555 -0.9758872 0.002955794 0.2182545 -0.9758875 0.002955138 0.2182525 -0.975888 0.002954125 0.2182496 -0.9758886 0.002944767 0.218255 -0.9758874 0.002956748 0.2182559 -0.9758872 0.002953708 0.218255 -0.9758874 0.002956628 0.2182508 -0.9758883 0.002956271 0.2182558 -0.9758872 0.002957224 -0.8439387 0.5364317 0.002947926 -0.8439398 0.53643 0.002954721 -0.8439409 0.5364283 0.002952218 -0.8439401 0.5364294 0.002952814 -0.8439399 0.5364298 0.002955675 -0.8439419 0.5364267 0.002954304 -0.8439391 0.5364309 0.002955377 -0.8439401 0.5364295 0.002952635 -0.8439393 0.5364307 0.002955436 -0.8439404 0.5364291 0.002954006 -0.8439381 0.5364328 0.00294584 -0.8439394 0.5364306 0.002955794 -0.8439396 0.5364303 0.002957105 -0.5964312 -0.8026589 0.002952456 -0.5964311 -0.8026589 0.002956867 -0.5964306 -0.8026592 0.002954542 -0.5964317 -0.8026584 0.002954244 -0.5964325 -0.8026579 0.002956271 -0.5964314 -0.8026586 0.0029549 -0.5964329 -0.8026576 0.002956032 -0.5964314 -0.8026586 0.00295329 -0.5964308 -0.8026591 0.002954721 -0.5964323 -0.802658 0.002954304 -0.5964304 -0.8026595 0.002954006 -0.9574139 -0.288704 0.002952575 0.2182502 -0.9758885 0.002949953 -0.8439368 0.5364345 0.002961754 -0.5964322 -0.802658 0.002960145 -0.957414 -0.2887035 0.002961397 0.2182538 -0.9758877 0.002957522 -0.8439372 0.5364338 0.002951741 -0.5964297 -0.8026599 0.002957165 -0.9574139 -0.2887042 0.002964496 0.2182508 -0.9758883 0.002955973 -0.8439386 0.5364317 0.002952337 -0.5964315 -0.8026587 0.002957165 -0.9574151 -0.2887001 0.002952516 0.2182528 -0.9758878 0.002954721 -0.8439366 0.536435 0.002939045 -0.5964339 -0.8026567 0.002960681 -0.9574142 -0.288703 0.002955973 0.2182536 -0.9758877 0.002952396 -0.8439359 0.5364363 0.002937853 -0.596431 -0.802659 0.002952814</float_array>
          <technique_common>
            <accessor source="#Plane_001-mesh-normals-array" count="260" stride="3">
              <param name="X" type="float"/>
              <param name="Y" type="float"/>
              <param name="Z" type="float"/>
            </accessor>
          </technique_common>
        </source>
        <source id="Plane_001-mesh-map-0">
          <float_array id="Plane_001-mesh-map-0-array" count="1320">0.7637183 0.7432767 0.7213928 0.8505707 0.7213928 0.7239586 0.5944179 0.7371968 0.552093 0.8273071 0.552093 0.7472224 0.6367429 0.7473801 0.6790679 0.8442296 0.636743 0.8271499 0.509768 0.7643318 0.552093 0.8273071 0.5097681 0.8101979 0.6790679 0.7302998 0.7213928 0.8505707 0.6790679 0.8442296 0.6367429 0.7473801 0.5944181 0.8373328 0.5944179 0.7371968 0.458231 0.006682753 0.5090212 0.1486832 0.458231 0.1423736 0.2550709 0.03743761 0.3058611 0.1368992 0.2550709 0.1116184 0.3566507 0.02584797 0.3058611 0.1368992 0.3058611 0.01215678 0.3566507 0.02584797 0.4074409 0.1425105 0.3566507 0.1232085 0.458231 0.006682753 0.4074409 0.1425105 0.4074409 0.006545603 0.7637178 0.3178052 0.7213923 0.4250993 0.7213923 0.2984869 0.5520924 0.3217508 0.5944175 0.4118615 0.5520925 0.4018359 0.6790673 0.3048285 0.6367424 0.4016782 0.6367424 0.3219082 0.5520924 0.3217508 0.5097675 0.3847264 0.5097675 0.3388602 0.6790673 0.3048285 0.7213923 0.4250993 0.6790673 0.4187579 0.5944174 0.3117251 0.6367424 0.4016782 0.5944175 0.4118615 0.2543241 3.73383e-4 0.203534 0.1423738 0.203534 0.006682336 0.05116403 0.01215684 3.73912e-4 0.1116186 3.73383e-4 0.03743773 0.05116403 0.01215684 0.1019537 0.1232085 0.05116409 0.1368997 0.1019536 0.02584791 0.1527439 0.1425105 0.1019537 0.1232085 0.1527438 0.006545841 0.203534 0.1423738 0.1527439 0.1425105 0.2119982 0.7456559 0.2543237 0.8529498 0.2119982 0.8722679 0.04269832 0.7689196 0.08502328 0.85903 0.04269832 0.8490043 0.1696732 0.7519971 0.1273483 0.8488465 0.1273483 0.7690768 0.04269832 0.7689196 3.73383e-4 0.8318949 3.73417e-4 0.7860289 0.2119982 0.7456559 0.1696732 0.8659266 0.1696732 0.7519971 0.1273483 0.7690768 0.08502328 0.85903 0.08502334 0.7588934 0.5090207 0.2984867 0.4582306 0.4404867 0.4582305 0.3047958 0.2550704 0.3355509 0.3058607 0.4350124 0.2550705 0.4097319 0.3566502 0.3239611 0.3058607 0.4350124 0.3058606 0.3102698 0.3566502 0.3239611 0.4074404 0.4406232 0.3566502 0.4213216 0.4582305 0.3047958 0.4074404 0.4406232 0.4074404 0.3046587 0.5090208 0.7649738 0.4666953 0.8722675 0.4666953 0.7456555 0.3397204 0.7588934 0.2973954 0.8490041 0.2973954 0.768919 0.3820453 0.7690768 0.4243703 0.8659261 0.3820453 0.8488465 0.2550705 0.7860286 0.2973954 0.8490041 0.2550705 0.8318945 0.4666953 0.7456555 0.4243703 0.8659261 0.4243704 0.7519967 0.3820453 0.7690768 0.3397204 0.8590297 0.3397204 0.7588934 0.2035334 0.6029092 0.2543237 0.7449091 0.2035335 0.7386001 3.73383e-4 0.6336642 0.05116367 0.7331257 3.73466e-4 0.7078451 0.1019532 0.6220743 0.05116367 0.7331257 0.05116355 0.6083831 0.1019532 0.6220743 0.1527435 0.7387365 0.1019533 0.7194348 0.2035334 0.6029092 0.1527435 0.7387365 0.1527433 0.6027721 0.7213927 3.73383e-4 0.7637181 0.1076673 0.7213928 0.1269859 0.5520929 0.02363699 0.5944179 0.1137479 0.552093 0.1037224 0.6367428 0.02379471 0.6790677 0.1206442 0.6367428 0.1035644 0.5520929 0.02363699 0.509768 0.08661252 0.509768 0.04074633 0.7213927 3.73383e-4 0.6790677 0.1206442 0.6790678 0.006714999 0.6367428 0.02379471 0.5944179 0.1137479 0.5944178 0.01361137 0.5090208 0.4475433 0.4582305 0.5895431 0.4582306 0.4538523 0.3058606 0.4593263 0.2550705 0.5587884 0.2550705 0.4846071 0.3058606 0.4593263 0.3566502 0.570378 0.3058606 0.5840693 0.3566502 0.4730175 0.4074404 0.5896797 0.3566502 0.570378 0.4582306 0.4538523 0.4074404 0.5896797 0.4074404 0.4537152 0.7213927 0.1277326 0.7637181 0.2350267 0.7213928 0.2543451 0.5520929 0.1509965 0.5944179 0.2411072 0.5520929 0.2310817 0.6790677 0.1340742 0.6367428 0.2309235 0.6367428 0.151154 0.5520929 0.1509965 0.509768 0.2139721 0.509768 0.1681058 0.6790677 0.1340742 0.7213928 0.2543451 0.6790677 0.2480036 0.5944178 0.140971 0.6367428 0.2309235 0.5944179 0.2411072 0.2035334 0.3047962 0.2543237 0.4467965 0.2035335 0.4404874 3.73383e-4 0.3355512 0.05116361 0.4350126 3.73483e-4 0.4097324 0.1019532 0.3239612 0.05116361 0.4350126 0.05116355 0.3102704 0.1527433 0.3046594 0.1019532 0.4213218 0.1019532 0.3239612 0.2035334 0.3047962 0.1527434 0.4406238 0.1527433 0.3046594 0.2543236 0.8923333 0.2119981 0.9996266 0.2119986 0.8730147 0.04269832 0.8962785 0.08502334 0.9863888 0.04269832 0.9763633 0.1696732 0.8793564 0.1273483 0.9762058 0.1273482 0.8964361 0.04269832 0.8962785 3.73383e-4 0.9592539 3.73383e-4 0.9133878 0.1696732 0.8793564 0.2119981 0.9996266 0.1696732 0.9932855 0.1273482 0.8964361 0.08502334 0.9863888 0.08502328 0.8862529 0.2543237 0.1494299 0.2035334 0.2914302 0.2035334 0.1557391 0.05116355 0.1612135 3.734e-4 0.2606751 3.73383e-4 0.1864938 0.05116355 0.1612135 0.1019532 0.2722652 0.05116355 0.285956 0.1527433 0.1556025 0.1019532 0.2722652 0.1019532 0.1749042 0.2035334 0.1557391 0.1527433 0.2915669 0.1527433 0.1556025 0.7213928 0.4692407 0.7637183 0.5765347 0.7213928 0.5958529 0.5944179 0.4824786 0.552093 0.5725889 0.552093 0.4925043 0.6790679 0.475582 0.6367428 0.5724316 0.6367429 0.4926617 0.509768 0.5096138 0.552093 0.5725889 0.509768 0.5554798 0.6790679 0.475582 0.7213928 0.5958529 0.6790678 0.5895119 0.5944179 0.4824786 0.6367428 0.5724316 0.594418 0.5826148 0.5090217 0.1494299 0.4582315 0.2914298 0.4582315 0.1557389 0.3058616 0.1612132 0.2550715 0.2606749 0.2550709 0.1864943 0.3058616 0.1612132 0.3566513 0.272265 0.3058617 0.2859561 0.4074414 0.1556022 0.3566513 0.272265 0.3566512 0.174904 0.4074414 0.1556022 0.4582315 0.2914298 0.4074414 0.2915668 0.7637183 0.6159178 0.7213929 0.7232118 0.7213928 0.5965996 0.552093 0.6198631 0.5944181 0.7099739 0.5520931 0.6999484 0.6790679 0.6029409 0.636743 0.6997905 0.636743 0.6200208 0.509768 0.6369729 0.5520931 0.6999484 0.509768 0.682839 0.6790679 0.6029409 0.7213929 0.7232118 0.6790679 0.7168707 0.636743 0.6200208 0.5944181 0.7099739 0.594418 0.6098373 0.2035335 0.4538523 0.2543237 0.5958529 0.2035335 0.5895437 3.73383e-4 0.4846073 0.05116361 0.5840693 3.734e-4 0.5587884 0.1019532 0.4730175 0.05116361 0.5840693 0.05116361 0.4593263 0.1019532 0.4730175 0.1527433 0.5896804 0.1019532 0.5703785 0.1527433 0.4537158 0.2035335 0.5895437 0.1527433 0.5896804 0.7213928 0.8513175 0.7637183 0.9586114 0.7213928 0.9779295 0.594418 0.8645552 0.552093 0.9546657 0.552093 0.8745808 0.6367429 0.8747383 0.6790679 0.971588 0.636743 0.9545083 0.509768 0.8916907 0.552093 0.9546657 0.509768 0.9375563 0.7213928 0.8513175 0.6790679 0.971588 0.6790678 0.8576584 0.594418 0.8645552 0.636743 0.9545083 0.594418 0.9646914 0.5090212 0.5965996 0.458231 0.7385997 0.458231 0.6029086 0.2550705 0.6336636 0.3058612 0.7331252 0.2550709 0.7078445 0.3566507 0.6220738 0.3058612 0.7331252 0.3058611 0.6083826 0.4074409 0.6027719 0.3566507 0.7194343 0.3566507 0.6220738 0.458231 0.6029086 0.4074409 0.7387363 0.4074409 0.6027719 0.7637183 0.7432767 0.7637183 0.8312527 0.7213928 0.8505707 0.5944179 0.7371968 0.5944181 0.8373328 0.552093 0.8273071 0.6367429 0.7473801 0.6790679 0.7302998 0.6790679 0.8442296 0.509768 0.7643318 0.552093 0.7472224 0.552093 0.8273071 0.6790679 0.7302998 0.7213928 0.7239586 0.7213928 0.8505707 0.6367429 0.7473801 0.636743 0.8271499 0.5944181 0.8373328 0.458231 0.006682753 0.5090212 3.73383e-4 0.5090212 0.1486832 0.2550709 0.03743761 0.3058611 0.01215678 0.3058611 0.1368992 0.3566507 0.02584797 0.3566507 0.1232085 0.3058611 0.1368992 0.3566507 0.02584797 0.4074409 0.006545603 0.4074409 0.1425105 0.458231 0.006682753 0.458231 0.1423736 0.4074409 0.1425105 0.7637178 0.3178052 0.7637178 0.4057813 0.7213923 0.4250993 0.5520924 0.3217508 0.5944174 0.3117251 0.5944175 0.4118615 0.6790673 0.3048285 0.6790673 0.4187579 0.6367424 0.4016782 0.5520924 0.3217508 0.5520925 0.4018359 0.5097675 0.3847264 0.6790673 0.3048285 0.7213923 0.2984869 0.7213923 0.4250993 0.5944174 0.3117251 0.6367424 0.3219082 0.6367424 0.4016782 0.2543241 3.73383e-4 0.2543241 0.1486831 0.203534 0.1423738 0.05116403 0.01215684 0.05116409 0.1368997 3.73912e-4 0.1116186 0.05116403 0.01215684 0.1019536 0.02584791 0.1019537 0.1232085 0.1019536 0.02584791 0.1527438 0.006545841 0.1527439 0.1425105 0.1527438 0.006545841 0.203534 0.006682336 0.203534 0.1423738 0.2119982 0.7456559 0.2543237 0.7649738 0.2543237 0.8529498 0.04269832 0.7689196 0.08502334 0.7588934 0.08502328 0.85903 0.1696732 0.7519971 0.1696732 0.8659266 0.1273483 0.8488465 0.04269832 0.7689196 0.04269832 0.8490043 3.73383e-4 0.8318949 0.2119982 0.7456559 0.2119982 0.8722679 0.1696732 0.8659266 0.1273483 0.7690768 0.1273483 0.8488465 0.08502328 0.85903 0.5090207 0.2984867 0.5090207 0.4467962 0.4582306 0.4404867 0.2550704 0.3355509 0.3058606 0.3102698 0.3058607 0.4350124 0.3566502 0.3239611 0.3566502 0.4213216 0.3058607 0.4350124 0.3566502 0.3239611 0.4074404 0.3046587 0.4074404 0.4406232 0.4582305 0.3047958 0.4582306 0.4404867 0.4074404 0.4406232 0.5090208 0.7649738 0.5090208 0.8529492 0.4666953 0.8722675 0.3397204 0.7588934 0.3397204 0.8590297 0.2973954 0.8490041 0.3820453 0.7690768 0.4243704 0.7519967 0.4243703 0.8659261 0.2550705 0.7860286 0.2973954 0.768919 0.2973954 0.8490041 0.4666953 0.7456555 0.4666953 0.8722675 0.4243703 0.8659261 0.3820453 0.7690768 0.3820453 0.8488465 0.3397204 0.8590297 0.2035334 0.6029092 0.2543237 0.5965996 0.2543237 0.7449091 3.73383e-4 0.6336642 0.05116355 0.6083831 0.05116367 0.7331257 0.1019532 0.6220743 0.1019533 0.7194348 0.05116367 0.7331257 0.1019532 0.6220743 0.1527433 0.6027721 0.1527435 0.7387365 0.2035334 0.6029092 0.2035335 0.7386001 0.1527435 0.7387365 0.7213927 3.73383e-4 0.7637181 0.01969176 0.7637181 0.1076673 0.5520929 0.02363699 0.5944178 0.01361137 0.5944179 0.1137479 0.6367428 0.02379471 0.6790678 0.006714999 0.6790677 0.1206442 0.5520929 0.02363699 0.552093 0.1037224 0.509768 0.08661252 0.7213927 3.73383e-4 0.7213928 0.1269859 0.6790677 0.1206442 0.6367428 0.02379471 0.6367428 0.1035644 0.5944179 0.1137479 0.5090208 0.4475433 0.5090208 0.5958527 0.4582305 0.5895431 0.3058606 0.4593263 0.3058606 0.5840693 0.2550705 0.5587884 0.3058606 0.4593263 0.3566502 0.4730175 0.3566502 0.570378 0.3566502 0.4730175 0.4074404 0.4537152 0.4074404 0.5896797 0.4582306 0.4538523 0.4582305 0.5895431 0.4074404 0.5896797 0.7213927 0.1277326 0.7637181 0.1470509 0.7637181 0.2350267 0.5520929 0.1509965 0.5944178 0.140971 0.5944179 0.2411072 0.6790677 0.1340742 0.6790677 0.2480036 0.6367428 0.2309235 0.5520929 0.1509965 0.5520929 0.2310817 0.509768 0.2139721 0.6790677 0.1340742 0.7213927 0.1277326 0.7213928 0.2543451 0.5944178 0.140971 0.6367428 0.151154 0.6367428 0.2309235 0.2035334 0.3047962 0.2543237 0.2984867 0.2543237 0.4467965 3.73383e-4 0.3355512 0.05116355 0.3102704 0.05116361 0.4350126 0.1019532 0.3239612 0.1019532 0.4213218 0.05116361 0.4350126 0.1527433 0.3046594 0.1527434 0.4406238 0.1019532 0.4213218 0.2035334 0.3047962 0.2035335 0.4404874 0.1527434 0.4406238 0.2543236 0.8923333 0.2543236 0.9803087 0.2119981 0.9996266 0.04269832 0.8962785 0.08502328 0.8862529 0.08502334 0.9863888 0.1696732 0.8793564 0.1696732 0.9932855 0.1273483 0.9762058 0.04269832 0.8962785 0.04269832 0.9763633 3.73383e-4 0.9592539 0.1696732 0.8793564 0.2119986 0.8730147 0.2119981 0.9996266 0.1273482 0.8964361 0.1273483 0.9762058 0.08502334 0.9863888 0.2543237 0.1494299 0.2543237 0.2977399 0.2035334 0.2914302 0.05116355 0.1612135 0.05116355 0.285956 3.734e-4 0.2606751 0.05116355 0.1612135 0.1019532 0.1749042 0.1019532 0.2722652 0.1527433 0.1556025 0.1527433 0.2915669 0.1019532 0.2722652 0.2035334 0.1557391 0.2035334 0.2914302 0.1527433 0.2915669 0.7213928 0.4692407 0.7637183 0.4885585 0.7637183 0.5765347 0.5944179 0.4824786 0.594418 0.5826148 0.552093 0.5725889 0.6790679 0.475582 0.6790678 0.5895119 0.6367428 0.5724316 0.509768 0.5096138 0.552093 0.4925043 0.552093 0.5725889 0.6790679 0.475582 0.7213928 0.4692407 0.7213928 0.5958529 0.5944179 0.4824786 0.6367429 0.4926617 0.6367428 0.5724316 0.5090217 0.1494299 0.5090217 0.2977392 0.4582315 0.2914298 0.3058616 0.1612132 0.3058617 0.2859561 0.2550715 0.2606749 0.3058616 0.1612132 0.3566512 0.174904 0.3566513 0.272265 0.4074414 0.1556022 0.4074414 0.2915668 0.3566513 0.272265 0.4074414 0.1556022 0.4582315 0.1557389 0.4582315 0.2914298 0.7637183 0.6159178 0.7637183 0.7038937 0.7213929 0.7232118 0.552093 0.6198631 0.594418 0.6098373 0.5944181 0.7099739 0.6790679 0.6029409 0.6790679 0.7168707 0.636743 0.6997905 0.509768 0.6369729 0.552093 0.6198631 0.5520931 0.6999484 0.6790679 0.6029409 0.7213928 0.5965996 0.7213929 0.7232118 0.636743 0.6200208 0.636743 0.6997905 0.5944181 0.7099739 0.2035335 0.4538523 0.2543237 0.4475433 0.2543237 0.5958529 3.73383e-4 0.4846073 0.05116361 0.4593263 0.05116361 0.5840693 0.1019532 0.4730175 0.1019532 0.5703785 0.05116361 0.5840693 0.1019532 0.4730175 0.1527433 0.4537158 0.1527433 0.5896804 0.1527433 0.4537158 0.2035335 0.4538523 0.2035335 0.5895437 0.7213928 0.8513175 0.7637183 0.8706353 0.7637183 0.9586114 0.594418 0.8645552 0.594418 0.9646914 0.552093 0.9546657 0.6367429 0.8747383 0.6790678 0.8576584 0.6790679 0.971588 0.509768 0.8916907 0.552093 0.8745808 0.552093 0.9546657 0.7213928 0.8513175 0.7213928 0.9779295 0.6790679 0.971588 0.594418 0.8645552 0.6367429 0.8747383 0.636743 0.9545083 0.5090212 0.5965996 0.5090212 0.7449088 0.458231 0.7385997 0.2550705 0.6336636 0.3058611 0.6083826 0.3058612 0.7331252 0.3566507 0.6220738 0.3566507 0.7194343 0.3058612 0.7331252 0.4074409 0.6027719 0.4074409 0.7387363 0.3566507 0.7194343 0.458231 0.6029086 0.458231 0.7385997 0.4074409 0.7387363</float_array>
          <technique_common>
            <accessor source="#Plane_001-mesh-map-0-array" count="660" stride="2">
              <param name="S" type="float"/>
              <param name="T" type="float"/>
            </accessor>
          </technique_common>
        </source>
        <vertices id="Plane_001-mesh-vertices">
          <input semantic="POSITION" source="#Plane_001-mesh-positions"/>
        </vertices>
        <triangles material="Default_OBJ-material" count="220">
          <input semantic="VERTEX" source="#Plane_001-mesh-vertices" offset="0"/>
          <input semantic="NORMAL" source="#Plane_001-mesh-normals" offset="1"/>
          <input semantic="TEXCOORD" source="#Plane_001-mesh-map-0" offset="2" set="0"/>
          <p>1 0 0 3 1 1 0 2 2 5 3 3 7 4 4 4 5 5 8 6 6 10 7 7 11 8 8 12 9 9 7 4 10 13 10 11 9 11 12 3 1 13 10 7 14 8 6 15 6 12 16 5 3 17 14 13 18 16 14 19 17 15 20 18 16 21 20 17 22 21 18 23 22 19 24 20 17 25 19 20 26 22 19 27 25 21 28 23 22 29 14 13 30 25 21 31 24 23 32 27 24 33 29 25 34 26 26 35 30 27 36 32 28 37 33 29 38 35 30 39 37 31 40 34 32 41 30 27 42 39 33 43 38 34 44 35 30 45 29 25 46 36 35 47 31 36 48 37 31 49 32 28 50 41 37 51 43 38 52 40 39 53 45 40 54 47 41 55 44 42 56 45 40 57 49 43 58 46 44 59 48 45 60 51 46 61 49 43 62 50 47 63 43 38 64 51 46 65 52 48 66 54 49 67 55 50 68 56 51 69 58 52 70 59 53 71 61 54 72 63 55 73 60 56 74 56 51 75 65 57 76 64 58 77 52 48 78 62 59 79 61 54 80 60 56 81 58 52 82 57 60 83 67 61 84 69 62 85 66 63 86 70 64 87 72 65 88 73 66 89 74 67 90 72 65 91 71 68 92 74 67 93 77 69 94 75 70 95 66 63 96 77 69 97 76 71 98 79 72 99 81 73 100 78 74 101 83 75 102 85 76 103 82 77 104 86 78 105 88 79 106 89 80 107 90 81 108 85 76 109 91 82 110 78 74 111 88 79 112 87 83 113 86 78 114 84 84 115 83 75 116 92 85 117 94 86 118 95 87 119 96 88 120 98 89 121 99 90 122 100 91 123 98 89 124 97 92 125 100 91 126 103 93 127 101 94 128 92 85 129 103 93 130 102 95 131 104 96 132 106 97 133 107 98 134 108 99 135 110 100 136 111 101 137 112 102 138 114 103 139 115 104 140 108 99 141 117 105 142 116 106 143 104 96 144 114 103 145 113 107 146 112 102 147 110 100 148 109 108 149 119 109 150 121 110 151 118 111 152 123 112 153 125 113 154 122 114 155 123 112 156 127 115 157 124 116 158 126 117 159 129 118 160 127 115 161 118 111 162 129 118 163 128 119 164 130 120 165 132 121 166 133 122 167 134 123 168 136 124 169 137 125 170 139 126 171 141 127 172 138 128 173 134 123 174 143 129 175 142 130 176 139 126 177 133 122 178 140 131 179 135 132 180 141 127 181 136 124 182 144 133 183 146 134 184 147 135 185 148 136 186 150 137 187 151 138 188 152 139 189 150 137 190 149 140 191 154 141 192 153 142 193 152 139 194 144 133 195 155 143 196 154 141 197 157 144 198 159 145 199 156 146 200 160 147 201 162 148 202 163 149 203 165 150 204 167 151 205 164 152 206 160 147 207 169 153 208 168 154 209 165 150 210 159 145 211 166 155 212 164 152 213 162 148 214 161 156 215 171 157 216 173 158 217 170 159 218 175 160 219 177 161 220 174 162 221 175 160 222 179 163 223 176 164 224 180 165 225 179 163 226 178 166 227 170 159 228 181 167 229 180 165 230 182 168 231 184 169 232 185 170 233 187 171 234 189 172 235 186 173 236 191 174 237 193 175 238 190 176 239 194 177 240 189 172 241 195 178 242 191 174 243 185 170 244 192 179 245 187 171 246 193 175 247 188 180 248 197 181 249 199 182 250 196 183 251 201 184 252 203 185 253 200 186 254 201 184 255 205 187 256 202 188 257 206 189 258 205 187 259 204 190 260 206 189 261 199 182 262 207 191 263 209 192 264 211 193 265 208 194 266 212 195 267 214 196 268 215 197 269 217 198 270 219 199 271 216 200 272 220 201 273 215 197 274 221 202 275 217 198 276 211 193 277 218 203 278 216 200 279 214 196 280 213 204 281 222 205 282 224 206 283 225 207 284 226 208 285 228 209 286 229 210 287 230 211 288 228 209 289 227 212 290 230 211 291 233 213 292 231 214 293 232 215 294 225 207 295 233 213 296 234 216 297 236 217 298 237 218 299 239 219 300 241 220 301 238 221 302 242 222 303 244 223 304 245 224 305 246 225 306 241 220 307 247 226 308 234 216 309 244 223 310 243 227 311 239 219 312 245 224 313 240 228 314 249 229 315 251 230 316 248 231 317 252 232 318 254 233 319 255 234 320 256 235 321 254 233 322 253 236 323 258 237 324 257 238 325 256 235 326 248 231 327 259 239 328 258 237 329 1 0 330 2 240 331 3 1 332 5 3 333 6 12 334 7 4 335 8 6 336 9 11 337 10 7 338 12 9 339 4 5 340 7 4 341 9 11 342 0 2 343 3 1 344 8 6 345 11 8 346 6 12 347 14 13 348 15 241 349 16 14 350 18 16 351 19 20 352 20 17 353 22 19 354 23 22 355 20 17 356 22 19 357 24 23 358 25 21 359 14 13 360 17 15 361 25 21 362 27 24 363 28 242 364 29 25 365 30 27 366 31 36 367 32 28 368 35 30 369 36 35 370 37 31 371 30 27 372 33 29 373 39 33 374 35 30 375 26 26 376 29 25 377 31 36 378 34 32 379 37 31 380 41 37 381 42 243 382 43 38 383 45 40 384 46 44 385 47 41 386 45 40 387 48 45 388 49 43 389 48 45 390 50 47 391 51 46 392 50 47 393 40 39 394 43 38 395 52 48 396 53 244 397 54 49 398 56 51 399 57 60 400 58 52 401 61 54 402 62 59 403 63 55 404 56 51 405 59 53 406 65 57 407 52 48 408 55 50 409 62 59 410 60 56 411 63 55 412 58 52 413 67 61 414 68 245 415 69 62 416 70 64 417 71 68 418 72 65 419 74 67 420 75 70 421 72 65 422 74 67 423 76 71 424 77 69 425 66 63 426 69 62 427 77 69 428 79 72 429 80 246 430 81 73 431 83 75 432 84 84 433 85 76 434 86 78 435 87 83 436 88 79 437 90 81 438 82 77 439 85 76 440 78 74 441 81 73 442 88 79 443 86 78 444 89 80 445 84 84 446 92 85 447 93 247 448 94 86 449 96 88 450 97 92 451 98 89 452 100 91 453 101 94 454 98 89 455 100 91 456 102 95 457 103 93 458 92 85 459 95 87 460 103 93 461 104 96 462 105 248 463 106 97 464 108 99 465 109 108 466 110 100 467 112 102 468 113 107 469 114 103 470 108 99 471 111 101 472 117 105 473 104 96 474 107 98 475 114 103 476 112 102 477 115 104 478 110 100 479 119 109 480 120 249 481 121 110 482 123 112 483 124 116 484 125 113 485 123 112 486 126 117 487 127 115 488 126 117 489 128 119 490 129 118 491 118 111 492 121 110 493 129 118 494 130 120 495 131 250 496 132 121 497 134 123 498 135 132 499 136 124 500 139 126 501 140 131 502 141 127 503 134 123 504 137 125 505 143 129 506 139 126 507 130 120 508 133 122 509 135 132 510 138 128 511 141 127 512 144 133 513 145 251 514 146 134 515 148 136 516 149 140 517 150 137 518 152 139 519 153 142 520 150 137 521 154 141 522 155 143 523 153 142 524 144 133 525 147 135 526 155 143 527 157 144 528 158 252 529 159 145 530 160 147 531 161 156 532 162 148 533 165 150 534 166 155 535 167 151 536 160 147 537 163 149 538 169 153 539 165 150 540 156 146 541 159 145 542 164 152 543 167 151 544 162 148 545 171 157 546 172 253 547 173 158 548 175 160 549 176 164 550 177 161 551 175 160 552 178 166 553 179 163 554 180 165 555 181 167 556 179 163 557 170 159 558 173 158 559 181 167 560 182 168 561 183 254 562 184 169 563 187 171 564 188 180 565 189 172 566 191 174 567 192 179 568 193 175 569 194 177 570 186 173 571 189 172 572 191 174 573 182 168 574 185 170 575 187 171 576 190 176 577 193 175 578 197 181 579 198 255 580 199 182 581 201 184 582 202 188 583 203 185 584 201 184 585 204 190 586 205 187 587 206 189 588 207 191 589 205 187 590 206 189 591 196 183 592 199 182 593 209 192 594 210 256 595 211 193 596 212 195 597 213 204 598 214 196 599 217 198 600 218 203 601 219 199 602 220 201 603 212 195 604 215 197 605 217 198 606 208 194 607 211 193 608 216 200 609 219 199 610 214 196 611 222 205 612 223 257 613 224 206 614 226 208 615 227 212 616 228 209 617 230 211 618 231 214 619 228 209 620 230 211 621 232 215 622 233 213 623 232 215 624 222 205 625 225 207 626 234 216 627 235 258 628 236 217 629 239 219 630 240 228 631 241 220 632 242 222 633 243 227 634 244 223 635 246 225 636 238 221 637 241 220 638 234 216 639 237 218 640 244 223 641 239 219 642 242 222 643 245 224 644 249 229 645 250 259 646 251 230 647 252 232 648 253 236 649 254 233 650 256 235 651 257 238 652 254 233 653 258 237 654 259 239 655 257 238 656 248 231 657 251 230 658 259 239 659</p>
        </triangles>
      </mesh>
    </geometry>
  </library_geometries>
  <library_visual_scenes>
    <visual_scene id="Scene" name="Scene">
      <node id="Plants" name="Plants" type="NODE">
        <matrix sid="transform">1 0 0 0 0 1 0 0 0 0 1 0 0 0 0 1</matrix>
        <instance_geometry url="#Plane_001-mesh" name="Plants">
          <bind_material>
            <technique_common>
              <instance_material symbol="Default_OBJ-material" target="#Default_OBJ-material">
                <bind_vertex_input semantic="UVMap" input_semantic="TEXCOORD" input_set="0"/>
              </instance_material>
            </technique_common>
          </bind_material>
        </instance_geometry>
      </node>
    </visual_scene>
  </library_visual_scenes>
  <scene>
    <instance_visual_scene url="#Scene"/>
  </scene>
</COLLADA>